<?xml version="1.0" encoding="UTF-8"?>
<svg id="_圖層_1" data-name="圖層_1" xmlns="http://www.w3.org/2000/svg" version="1.1" viewBox="0 0 2356.3 1403.59">
  <!-- Generator: Adobe Illustrator 30.3.0, SVG Export Plug-In . SVG Version: 2.1.3 Build 182)  -->
  <defs>
    <style>
      .st0 {
        fill: #3f3f3f;
      }
    </style>
  </defs>
  <g>
    <path class="st0" d="M941.15,798.58c0-2.43,1.4-3.65,4.21-3.65h2.62c1.12,0,1.98-.31,2.57-.93.59-.62.92-1.5.98-2.62v-20.76c-5.11,1.81-8.2,2.71-9.26,2.71-2.43,0-3.65-1.34-3.65-4.02,0-1.99,1.68-3.4,5.05-4.21l7.85-1.96v-20.01h-8.13c-1.5,0-2.6-.3-3.32-.89-.72-.59-1.08-1.51-1.08-2.76,0-2.43,1.46-3.65,4.39-3.65h8.13v-13.46c0-2.93,1.18-4.39,3.55-4.39,1.25,0,2.17.36,2.76,1.08.59.72.89,1.82.89,3.32v13.46h4.67c2.93,0,4.39,1.22,4.39,3.65,0,1.25-.36,2.17-1.08,2.76s-1.82.89-3.32.89h-4.67v17.76c2.62-.93,4.21-1.4,4.77-1.4,2.12,0,3.18,1.09,3.18,3.27,0,1.68-2.37,3.37-7.11,5.05l-.84.28v25.06c0,3.3-.73,5.73-2.2,7.29-1.46,1.56-3.82,2.28-7.06,2.15h-4.02c-2.87,0-4.3-1.34-4.3-4.02ZM965.5,796.01c.97-.72,2.38-1.14,4.25-1.26,5.73-.5,11.81-2.74,18.23-6.73-1.99-1.93-3.96-4.33-5.89-7.2-1.87-2.87-2.8-4.96-2.8-6.26,0-.75.33-1.39.98-1.92.65-.53,1.45-.79,2.38-.79,1.62,0,3.05,1.12,4.3,3.37,1.93,3.43,4.24,6.33,6.92,8.7,2.74-2.31,5.27-5.02,7.57-8.13,2.18-2.87,3.27-4.67,3.27-5.42,0-.69-.44-1.03-1.31-1.03h-24.03c-2.62,0-3.93-1.18-3.93-3.55s1.31-3.46,3.93-3.46h27.67c2.18,0,3.88.44,5.1,1.31,1.22.87,1.82,2.12,1.82,3.74,0,1.06-.41,2.46-1.22,4.21-.75,1.56-1.87,3.43-3.37,5.61-3.18,4.74-6.3,8.45-9.35,11.13,4.92,2.74,11.81,4.8,20.66,6.17,2.24.37,3.37,1.62,3.37,3.74,0,2.8-1.37,4.21-4.11,4.21-3.68,0-8.01-.97-13-2.9-5.24-2.06-9.54-4.21-12.9-6.45-3.05,2.12-7.48,4.3-13.28,6.54-5.11,1.99-9.44,2.99-13,2.99-2.49,0-3.74-1.25-3.74-3.74,0-1.18.48-2.13,1.45-2.85ZM968.31,723.78c1.22-.56,3.07-.78,5.56-.65,4.86.19,14.09-.56,27.67-2.24l8.6-1.4,3.18-.84,2.15-.37c2.93,0,4.39,1.31,4.39,3.93,0,1.93-2.21,3.3-6.64,4.11-2.68.5-7.88,1.18-15.61,2.06-5.86.62-12.62,1.09-20.29,1.4l-4.77.28h-2.24c-2.56,0-3.83-1.18-3.83-3.55,0-1.25.61-2.15,1.82-2.71ZM967.79,756.13c0-2.87.62-4.96,1.87-6.26,1.25-1.31,3.24-1.9,5.98-1.78h26.83l6.73-15.43c.93-2.06,2.31-3.09,4.11-3.09,1.18,0,2.1.23,2.76.7.65.47.98,1.04.98,1.73,0,1.12-.47,2.59-1.4,4.39l-6.08,11.69h4.3c2.87,0,4.96.64,6.26,1.92s1.9,3.32,1.78,6.12v7.57c0,2.99-1.22,4.49-3.65,4.49s-3.55-1.5-3.55-4.49v-5.7c0-1.93-1.06-2.96-3.18-3.09h-33.66c-1.99,0-3.05,1.03-3.18,3.09v6.26c0,2.8-1.15,4.21-3.46,4.21s-3.46-1.46-3.46-4.39v-7.95ZM973.59,732.2c1.62,0,2.96,1.12,4.02,3.37,2.31,4.74,3.46,7.51,3.46,8.32,0,2.18-1.15,3.27-3.46,3.27-1.68,0-2.96-1.22-3.83-3.65l-1.59-4.21c-.31-.87-.7-1.79-1.17-2.76-.47-.97-.7-1.51-.7-1.64,0-1.81,1.09-2.71,3.27-2.71ZM990.42,730.89c.81,0,1.64.48,2.48,1.45.84.97,1.64,2.35,2.38,4.16,1.56,3.74,2.34,6.08,2.34,7.01,0,2.18-1.15,3.27-3.46,3.27-1.62,0-2.87-1.28-3.74-3.83-.93-2.93-1.81-5.24-2.62-6.92-.5-1.12-.75-1.93-.75-2.43,0-1.81,1.12-2.71,3.37-2.71Z"/>
    <path class="st0" d="M1045.15,773.52c2.43-4.18,4.53-8.66,6.31-13.46,1.78-4.8,3.38-10.16,4.81-16.08h-8.23c-2.49,0-3.74-1.18-3.74-3.55,0-2.18,1.25-3.27,3.74-3.27h8.79v-15.52c0-2.62,1.15-3.93,3.46-3.93,1.25,0,2.15.31,2.71.93.56.62.84,1.62.84,2.99v15.52h4.96c2.12,0,3.18,1.12,3.18,3.37s-1.06,3.46-3.18,3.46h-4.96v10.28c.62-.62,1.31-.93,2.06-.93s2.15,1.59,4.21,4.77c2.06,3.18,3.09,5.27,3.09,6.26,0,1.68-.97,2.52-2.9,2.52-.87,0-1.9-1.15-3.09-3.46l-3.37-6.64v42.63c0,1.37-.28,2.37-.84,2.99s-1.46.93-2.71.93c-2.31,0-3.46-1.31-3.46-3.93v-39.36c-1.37,5.3-3.02,10.05-4.96,14.26-1.93,4.21-3.49,6.34-4.67,6.4-2.18.06-3.27-1.06-3.27-3.37,0-1.18.41-2.46,1.22-3.83ZM1076.57,793.06v-20.38c-3.8,4.18-6.42,6.26-7.85,6.26-1.06,0-1.82-.28-2.29-.84s-.7-1.43-.7-2.62c0-1.06.75-2.24,2.24-3.55,5.17-4.36,9.44-8.91,12.81-13.65,1-1.37,2.12-2.06,3.37-2.06,2.31,0,3.46.84,3.46,2.52,0,1-.75,2.37-2.24,4.11h13.74l.56-1.59c.56-1.68,1.28-2.95,2.15-3.79.87-.84,1.81-1.26,2.8-1.26,2.24,0,3.37.87,3.37,2.62,0,.37-.17.89-.51,1.54-.34.65-.83,1.48-1.45,2.48h19.73c1.99,0,2.99.93,2.99,2.8s-1,2.8-2.99,2.8h-19.26v5.05h16.36c1.99,0,2.99.9,2.99,2.71s-1,2.62-2.99,2.62h-16.36v4.96h16.36c1.99,0,2.99.87,2.99,2.62s-1,2.71-2.99,2.71h-16.36v5.61h19.91c2.06,0,3.09.93,3.09,2.8s-1.03,2.8-3.09,2.8h-42.45c-4.92,0-7.39-2.43-7.39-7.29ZM1072.83,724.72h12.43v-2.99c0-2.37,1.15-3.55,3.46-3.55s3.37,1.18,3.37,3.55v2.99h13.37v-2.99c0-2.37,1.15-3.55,3.46-3.55s3.46,1.18,3.46,3.55v2.99h13.28c2.24,0,3.37,1,3.37,2.99s-1.12,2.99-3.37,2.99h-13.28v2.52c0,2.37-1.15,3.55-3.46,3.55s-3.46-1.18-3.46-3.55v-2.52h-13.37v2.52c0,2.37-1.15,3.55-3.46,3.55s-3.37-1.18-3.37-3.55v-2.52h-12.43c-2.18,0-3.27-1-3.27-2.99s1.09-2.99,3.27-2.99ZM1073.3,744.54c0-4.24,2.12-6.36,6.36-6.36h11.5c4.3,0,6.45,2.12,6.45,6.36v4.86c0,4.24-2.15,6.36-6.45,6.36h-11.5c-4.24,0-6.36-2.06-6.36-6.17v-5.05ZM1081.52,750.33h7.85c1.18,0,1.78-.65,1.78-1.96v-2.9c0-1.18-.59-1.81-1.78-1.87h-7.85c-1.12,0-1.75.62-1.87,1.87v2.9c0,1.18.62,1.84,1.87,1.96ZM1099.38,773.52v-5.05h-13.84c-1.12,0-1.68.56-1.68,1.68v3.37h15.52ZM1099.38,783.8v-4.96h-15.52v4.96h15.52ZM1086.29,794.74h13.09v-5.61h-15.52v3.09c0,1.62.81,2.46,2.43,2.52ZM1100.88,744.54c0-4.24,2.12-6.36,6.36-6.36h12.81c4.18,0,6.26,2.12,6.26,6.36v4.86c0,4.18-2.09,6.26-6.26,6.26h-12.81c-4.24,0-6.36-2.09-6.36-6.26v-4.86ZM1109.1,750.24h8.7c1.25,0,1.9-.65,1.96-1.96v-2.8c0-1.12-.65-1.75-1.96-1.87h-8.7c-1.12,0-1.75.62-1.87,1.87v2.8c0,1.31.62,1.96,1.87,1.96Z"/>
    <path class="st0" d="M1176.83,762.3l-6.45.75v36.37c0,2.56-1.15,3.83-3.46,3.83s-3.46-1.28-3.46-3.83v-35.62l-10.75,1.22c-1.25.12-2.2-.16-2.85-.84-.65-.69-.98-1.65-.98-2.9,0-1.99,1.18-3.09,3.55-3.27l4.11-.28,6.54-9.54c-3.68-3.49-7.04-6.33-10.1-8.51-1.06-.75-1.82-1.4-2.29-1.96-.47-.56-.7-1.12-.7-1.68,0-2.37,1.18-3.55,3.55-3.55.75,0,1.75.47,2.99,1.4l.19-.09c2.68-4.74,4.71-8.73,6.08-11.97,1.12-2.56,2.56-3.83,4.3-3.83,2.56,0,3.83,1.15,3.83,3.46,0,1.18-.72,2.99-2.15,5.42-1.43,2.43-3.8,6.01-7.11,10.75l5.14,4.49,5.33-9.26c.69-1.12,1.34-1.93,1.96-2.43.62-.5,1.34-.75,2.15-.75,2.49,0,3.74,1.15,3.74,3.46,0,.62-.44,1.67-1.31,3.13-.87,1.46-2.37,3.79-4.49,6.97-4.18,6.3-7.6,11.09-10.28,14.4l11.03-.75-1.03-3.74-.19-1.4c-.12-.87.06-1.54.56-2.01.5-.47,1.22-.7,2.15-.7,1.25,0,2.74,2.15,4.49,6.45,1.68,3.99,2.52,6.61,2.52,7.85,0,1.06-.25,1.85-.75,2.38-.5.53-1.34.79-2.52.79-1.5,0-2.62-1.4-3.37-4.21ZM1149.72,787.73c1.68-4.24,2.62-9.32,2.8-15.24.06-2.87,1.18-4.3,3.37-4.3s3.27,1.22,3.27,3.65c0,3.3-.56,7.85-1.68,13.65-1.12,5.92-2.8,8.88-5.05,8.88-2.37,0-3.55-1.09-3.55-3.27,0-.87.28-1.99.84-3.37ZM1174.12,768.75c.56-.5,1.37-.75,2.43-.75.93,0,1.78.44,2.52,1.31.19.25.5,1.26.93,3.04.44,1.78.97,4.13,1.59,7.06l.47,1.96,1.12,6.92c.19,1.06-.06,1.89-.75,2.48-.69.59-1.65.89-2.9.89s-2.13-.61-2.85-1.82c-.72-1.22-1.14-2.95-1.26-5.19l-1.96-13.84c-.12-.87.09-1.56.65-2.06ZM1183.94,793.15h20.29v-15.71h-15.24c-1.43,0-2.52-.3-3.27-.89-.75-.59-1.12-1.45-1.12-2.57s.37-1.98,1.12-2.57c.75-.59,1.84-.89,3.27-.89h38.61c2.87,0,4.3,1.15,4.3,3.46s-1.43,3.46-4.3,3.46h-16.08v15.71h18.79c1.5,0,2.59.28,3.27.84.69.56,1.03,1.43,1.03,2.62,0,2.24-1.43,3.37-4.3,3.37h-46.37c-1.43,0-2.49-.28-3.18-.84-.69-.56-1.03-1.43-1.03-2.62,0-2.24,1.4-3.37,4.21-3.37ZM1183.38,723.87c.69-.56,1.75-.84,3.18-.84h42.54c2.87,0,4.3,1.15,4.3,3.46s-1.43,3.46-4.3,3.46h-42.54c-2.8,0-4.21-1.15-4.21-3.46,0-1.18.34-2.06,1.03-2.62ZM1185.43,743.79l2.99-8.6c.87-2.43,2.18-3.65,3.93-3.65,2.37,0,3.55,1.09,3.55,3.27,0,1.25-.93,3.71-2.8,7.39-.87,1.75-1.56,3.29-2.06,4.63-.5,1.34-.75,2.32-.75,2.95,0,.75,1.25,3.05,3.74,6.92,2.49,3.86,3.74,6.26,3.74,7.2,0,2.37-1.28,3.55-3.83,3.55-1.93,0-3.4-1.28-4.39-3.83-1.25-3.18-2.49-5.83-3.74-7.95-1.62-2.8-2.43-4.71-2.43-5.7,0-.87.69-2.93,2.06-6.17ZM1201.89,743.79l2.9-8.41c.44-1.18,1-2.12,1.68-2.8.69-.69,1.46-1.03,2.34-1.03,2.43,0,3.65,1.12,3.65,3.37,0,.93-.93,3.33-2.8,7.2-1.87,3.86-2.8,6.39-2.8,7.57,0,.37.33,1.22.98,2.52.65,1.31,1.54,2.84,2.66,4.58,2.49,3.99,3.74,6.42,3.74,7.29,0,2.24-1.25,3.37-3.74,3.37-1,0-1.82-.3-2.48-.89-.65-.59-1.26-1.54-1.82-2.85-1.25-2.87-2.52-5.52-3.83-7.95-1.62-3.05-2.43-4.99-2.43-5.8s.65-2.87,1.96-6.17ZM1217.5,745.38c1.25-3.24,2.4-6.42,3.46-9.54.5-1.43,1.08-2.51,1.73-3.23.65-.72,1.45-1.08,2.38-1.08,2.43,0,3.65,1.09,3.65,3.27,0,1.06-.93,3.49-2.8,7.29-1.87,3.86-2.8,6.36-2.8,7.48,0,.69.69,2.09,2.06,4.21,3.74,5.67,5.61,9.01,5.61,10,0,2.49-1.31,3.74-3.93,3.74-1.68,0-3.43-1.99-5.24-5.98l-3.74-7.2c-1.12-2.18-1.68-3.77-1.68-4.77,0-.56.44-1.96,1.31-4.21Z"/>
    <path class="st0" d="M1256.33,739.11c5.3-4.74,9.66-10.47,13.09-17.2,1.37-2.68,2.9-4.02,4.58-4.02,1.25,0,2.15.25,2.71.75.56.5.84,1.28.84,2.34,0,.56-.22,1.31-.65,2.24,8.91,5.36,13.37,9.07,13.37,11.13,0,2.24-1.15,3.37-3.46,3.37-.93,0-2.31-.84-4.11-2.52-1.56-1.56-4.46-3.83-8.7-6.83-2.8,4.74-6.36,9.35-10.66,13.84l1.03-.09h19.07c2.49,0,3.74,1.06,3.74,3.18s-1.25,3.27-3.74,3.27h-6.73v8.51h9.44c2.62,0,3.93,1.12,3.93,3.37s-1.31,3.37-3.93,3.37h-9.44v26.18l10.28-1.22c1-.12,1.78.11,2.34.7.56.59.84,1.42.84,2.48,0,1.37-.53,2.31-1.59,2.8-1.5.62-7.54,1.65-18.14,3.09l-11.03,1.59c-1.18.19-2.1-.08-2.76-.79-.65-.72-.98-1.7-.98-2.95,0-1.12.5-2.03,1.5-2.71,1-.69,2.46-1.09,4.39-1.22l8.7-1.03v-26.93h-9.54c-2.62,0-3.93-1.12-3.93-3.37s1.31-3.37,3.93-3.37h9.54v-8.51h-5.61c-1.25,0-2.17-.26-2.76-.79-.59-.53-.89-1.36-.89-2.48l.09-.93c-1.25,1.06-2.34,1.59-3.27,1.59-2.18,0-3.27-1.18-3.27-3.55,0-1.06.59-2.15,1.78-3.27ZM1259.51,771.74c0-2.37,1.06-3.55,3.18-3.55s3.09,1.18,3.09,3.55v10.56c0,2.31-1.06,3.46-3.18,3.46-1,0-1.76-.3-2.29-.89-.53-.59-.79-1.45-.79-2.57v-10.56ZM1280.92,771.74c0-2.37,1.03-3.55,3.09-3.55s3.18,1.09,3.18,3.27v9.72c0,2.24-1.06,3.37-3.18,3.37s-3.09-1.12-3.09-3.37v-9.44ZM1294.39,724.25c.69-.5,1.4-.75,2.15-.75,1.06,0,2.01.45,2.85,1.36.84.9,1.85,2.42,3.04,4.53,1.87,3.43,2.8,5.55,2.8,6.36,0,1.06-.3,1.82-.89,2.29s-1.54.7-2.85.7c-.81,0-1.6-.36-2.38-1.08-.78-.72-1.51-1.76-2.2-3.13-.93-1.93-1.76-3.71-2.48-5.33s-1.08-2.71-1.08-3.27c0-.62.34-1.18,1.03-1.68ZM1294.57,798.76v-48.06c0-2.93.64-5.08,1.92-6.45,1.28-1.37,3.35-1.96,6.22-1.78h7.29v-19.91c0-2.93,1.22-4.39,3.65-4.39s3.55,1.46,3.55,4.39v19.91h8.7c2.99,0,5.16.67,6.5,2.01,1.34,1.34,1.92,3.41,1.73,6.22v42.73c.25,3.3-.41,5.73-1.96,7.29-1.56,1.56-3.99,2.21-7.29,1.96h-4.86c-2.87,0-4.3-1.22-4.3-3.65s1.43-3.74,4.3-3.74h3.65c2.12,0,3.24-1.15,3.37-3.46v-11.03h-25.62v17.95c0,2.74-1.15,4.11-3.46,4.11s-3.37-1.37-3.37-4.11ZM1327.02,758.65v-6.54c0-1.81-.97-2.77-2.9-2.9h-19.91c-1.75,0-2.68.97-2.8,2.9v6.54h25.62ZM1327.02,774.45v-9.44h-25.62v9.44h25.62ZM1323.56,732.57l3.18-7.2c.69-1.68,1.96-2.52,3.83-2.52,2.49,0,3.74,1.09,3.74,3.27,0,.37-.25,1.18-.75,2.43-.5,1.25-1.22,2.74-2.15,4.49-1.99,3.8-3.74,5.7-5.24,5.7-2.49,0-3.74-1.03-3.74-3.09,0-.44.37-1.46,1.12-3.09Z"/>
    <path class="st0" d="M1364.08,798.39v-46.56c0-3.12.69-5.38,2.06-6.78,1.37-1.4,3.55-2.01,6.54-1.82h9.26l-1.78-10.38h-15.99c-2.8,0-4.21-1.15-4.21-3.46s1.4-3.55,4.21-3.55h33.66v-4.21c0-2.43,1.43-3.65,4.3-3.65s4.11,1.22,4.11,3.65v4.21h34.69c2.87,0,4.3,1.18,4.3,3.55s-1.43,3.46-4.3,3.46h-16.64l-2.52,10.38h10.75c3.05,0,5.28.67,6.68,2.01,1.4,1.34,2.01,3.54,1.82,6.59v41.32c.5,6.79-2.68,9.94-9.54,9.44h-6.17c-2.68,0-4.02-1.31-4.02-3.93s1.34-3.93,4.02-3.93h4.58c2.31,0,3.49-1.22,3.55-3.65v-37.87c0-2.12-1.09-3.24-3.27-3.37h-18.51v8.23c0,2.12,1.62,3.18,4.86,3.18,2.74,0,4.74-.25,5.98-.75.81-.31,1.28-1.28,1.4-2.9.06-1.12.34-1.95.84-2.48.5-.53,1.25-.79,2.24-.79,2.06,0,3.09.97,3.09,2.9,0,2.99-.65,5.49-1.96,7.48-1.12,1.68-4.61,2.52-10.47,2.52h-2.99c-3.86,0-6.42-.41-7.67-1.22-1.12-.75-1.75-2.12-1.87-4.11v-12.06h-8.98c-.62,7.23-3.86,12.72-9.72,16.46-3.62,2.37-6.14,3.55-7.57,3.55-1.18,0-2.06-.28-2.62-.84s-.84-1.43-.84-2.62c0-1.37,1.15-2.56,3.46-3.55,5.86-2.56,9.32-6.89,10.38-13h-14.21c-2.12,0-3.24,1.12-3.37,3.37v45.16c0,2.99-1.25,4.49-3.74,4.49s-3.83-1.5-3.83-4.49ZM1381.66,778.57c0-2.56.56-4.44,1.68-5.66,1.12-1.22,2.93-1.76,5.42-1.64h27.21c2.62,0,4.5.59,5.66,1.78,1.15,1.18,1.67,3.02,1.54,5.52v8.98c0,2.62-.58,4.53-1.73,5.75-1.15,1.22-2.98,1.76-5.47,1.64h-27.21c-2.56,0-4.41-.59-5.56-1.78-1.15-1.18-1.67-3.05-1.54-5.61v-8.98ZM1389.42,743.23h24.96c1.18-4.18,1.99-7.64,2.43-10.38h-29.17c.75,3.37,1.34,6.83,1.78,10.38ZM1391.29,788.67h22.16c1.68,0,2.52-.84,2.52-2.52v-6.08c0-1.62-.84-2.46-2.52-2.52h-22.16c-1.68,0-2.52.84-2.52,2.52v6.08c0,1.62.84,2.46,2.52,2.52Z"/>
  </g>
  <g>
    <path id="path365" class="st0" d="M1294.76,311.89c-.47-47.65,38.95-70.78,40.74-71.88-22.29-32.55-56.87-36.98-69.08-37.39-29.08-2.97-57.21,17.47-72.04,17.47s-37.88-17.09-62.43-16.62c-31.65.47-61.27,18.79-77.49,47.16-33.4,57.99-8.51,143.15,23.59,189.91,16.06,23,34.75,48.64,59.32,47.65,24.01-.91,32.96-15.27,61.96-15.27s37.13,15.27,62.19,14.78c25.76-.42,41.98-23.07,57.48-46.21,18.47-26.33,25.94-52.19,26.26-53.57-.61-.18-49.99-19-50.5-76.03"/>
    <path id="path367" class="st0" d="M1247.39,171.92c12.98-16.18,21.8-38.17,19.37-60.44-18.71.81-42.03,12.98-55.55,28.71-11.93,13.95-22.53,36.71-19.78,58.18,21,1.57,42.51-10.64,55.97-26.46"/>
  </g>
  <g>
    <path class="st0" d="M681.18,662.73c-.87-.9-1.3-1.99-1.3-3.26,0-.47.17-1.14.5-2.01l25.59-60.42c.6-1.34,1.41-2.37,2.41-3.11,1-.74,2.18-1.1,3.51-1.1h1c1.34,0,2.51.37,3.51,1.1,1,.74,1.81,1.77,2.41,3.11l25.59,60.42c.33.87.5,1.54.5,2.01,0,1.27-.43,2.36-1.3,3.26-.87.9-1.98,1.35-3.31,1.35-1,0-1.89-.25-2.66-.75-.76-.5-1.35-1.22-1.75-2.16l-6.52-15.56h-33.92l-6.52,15.56c-.4.94-.99,1.66-1.75,2.16-.77.5-1.66.75-2.66.75-1.34,0-2.44-.45-3.31-1.35ZM725.84,637.09l-12.65-30.41c-.2-.47-.47-.7-.8-.7s-.6.24-.8.7l-12.65,30.41h26.9Z"/>
    <path class="st0" d="M769.32,661.98c-2.68-1.74-4.75-4.11-6.22-7.13-1.47-3.01-2.21-6.36-2.21-10.04v-28.5c0-1.27.47-2.36,1.41-3.26.93-.9,2.04-1.35,3.31-1.35s2.36.45,3.26,1.35c.91.9,1.36,1.99,1.36,3.26v27.5c0,8.09,3.64,12.14,10.94,12.14,3.21,0,6.11-.8,8.68-2.41,2.57-1.61,5.13-3.98,7.67-7.13v-30.11c0-1.27.47-2.36,1.41-3.26.93-.9,2.04-1.35,3.31-1.35s2.35.45,3.27,1.35c.9.9,1.35,1.99,1.35,3.26v43.05c0,1.27-.46,2.37-1.35,3.31-.91.94-1.99,1.41-3.27,1.41s-2.38-.47-3.31-1.41c-.93-.94-1.41-2.04-1.41-3.31v-3.81c-2.74,2.95-5.59,5.18-8.53,6.72-2.94,1.54-6.29,2.31-10.04,2.31s-6.82-.87-9.63-2.61Z"/>
    <path class="st0" d="M830.65,651.24v-30.51h-5.02c-1.27,0-2.25-.35-2.96-1.05-.69-.7-1.05-1.69-1.05-2.96s.36-2.26,1.05-2.96c.71-.7,1.69-1.05,2.96-1.05h5.02v-7.13c0-1.54.42-2.71,1.25-3.51.84-.8,1.99-1.2,3.47-1.2s2.61.42,3.41,1.25c.8.84,1.2,1.99,1.2,3.46v7.13h11.24c1.13,0,2.09.39,2.86,1.15.76.77,1.15,1.72,1.15,2.86,0,1.07-.39,2.01-1.15,2.81-.77.8-1.73,1.2-2.86,1.2h-11.24v29.71c0,2.34.53,3.91,1.61,4.72s2.68,1.2,4.82,1.2c1.41,0,2.74-.2,4.01-.6.13,0,.23-.03.3-.1.67-.14,1.24-.2,1.71-.2,1,0,1.88.37,2.61,1.1.73.74,1.1,1.61,1.1,2.61,0,1.54-.8,2.74-2.41,3.61-2.61,1.2-5.39,1.81-8.33,1.81-9.84,0-14.75-4.45-14.75-13.35Z"/>
    <path class="st0" d="M872.48,662.73c-.91-.9-1.36-1.99-1.36-3.26v-65.13c0-1.27.45-2.37,1.36-3.31.9-.94,1.98-1.41,3.26-1.41s2.38.47,3.31,1.41c.93.94,1.41,2.04,1.41,3.31v25.89c2.74-2.95,5.59-5.18,8.53-6.72,2.94-1.54,6.29-2.31,10.04-2.31s6.92.87,9.73,2.61c2.68,1.74,4.73,4.11,6.17,7.13,1.44,3.01,2.16,6.36,2.16,10.04v28.5c0,1.27-.47,2.36-1.41,3.26-.93.9-2.04,1.35-3.31,1.35s-2.35-.45-3.27-1.35c-.9-.9-1.35-1.99-1.35-3.26v-27.5c0-8.09-3.64-12.14-10.94-12.14-3.21,0-6.11.8-8.68,2.41-2.58,1.61-5.14,3.98-7.68,7.13v30.11c0,1.27-.47,2.36-1.41,3.26-.93.9-2.04,1.35-3.31,1.35s-2.36-.45-3.26-1.35Z"/>
    <path class="st0" d="M946.5,661.28c-3.88-2.27-6.89-5.45-9.03-9.53-2.14-4.08-3.21-8.7-3.21-13.85s1.07-9.87,3.21-13.95c2.14-4.08,5.16-7.23,9.09-9.43,3.91-2.21,8.41-3.31,13.49-3.31s9.56,1.1,13.45,3.31c3.94,2.27,6.99,5.43,9.13,9.48,2.14,4.05,3.21,8.68,3.21,13.9s-1.07,9.84-3.21,13.85c-2.21,4.15-5.27,7.33-9.18,9.53-3.92,2.21-8.38,3.31-13.4,3.31s-9.6-1.1-13.55-3.31ZM946,648.13c1.47,2.61,3.43,4.58,5.87,5.92,2.45,1.34,5.17,2.01,8.18,2.01,2.74,0,5.39-.64,7.93-1.91,2.61-1.34,4.69-3.4,6.22-6.17,1.54-2.78,2.31-6.17,2.31-10.19,0-4.22-.8-7.63-2.41-10.24-1.47-2.54-3.43-4.48-5.87-5.82-2.45-1.34-5.17-2.01-8.18-2.01-2.74,0-5.39.6-7.93,1.81-2.61,1.34-4.69,3.38-6.22,6.12-1.54,2.74-2.31,6.12-2.31,10.14,0,4.28.8,7.73,2.41,10.34Z"/>
    <path class="st0" d="M1004.89,662.73c-.91-.9-1.36-1.99-1.36-3.26v-43.05c0-1.27.45-2.37,1.36-3.31.9-.94,1.98-1.41,3.26-1.41s2.38.47,3.31,1.41c.93.94,1.41,2.04,1.41,3.31v4.01c4.62-6.16,9.84-9.23,15.66-9.23h.5c1.27,0,2.34.45,3.21,1.35.87.9,1.3,1.99,1.3,3.26s-.46,2.32-1.35,3.16c-.91.84-2.03,1.25-3.37,1.25h-.5c-3.14,0-6.04.75-8.68,2.26-2.64,1.51-4.89,3.66-6.77,6.47v30.51c0,1.27-.47,2.36-1.41,3.26-.93.9-2.04,1.35-3.31,1.35s-2.36-.45-3.26-1.35Z"/>
    <path class="st0" d="M1046.3,596.34c0-1.41.52-2.62,1.56-3.66,1.03-1.04,2.25-1.56,3.66-1.56h.6c1.41,0,2.62.52,3.66,1.56,1.04,1.04,1.56,2.26,1.56,3.66v.4c0,1.41-.52,2.62-1.56,3.66-1.03,1.04-2.25,1.56-3.66,1.56h-.6c-1.41,0-2.62-.52-3.66-1.56-1.04-1.04-1.56-2.26-1.56-3.66v-.4ZM1048.46,662.73c-.91-.9-1.36-1.99-1.36-3.26v-43.05c0-1.27.45-2.37,1.36-3.31.9-.94,1.98-1.41,3.26-1.41s2.45.45,3.37,1.35c.9.9,1.35,2.02,1.35,3.36v43.05c0,1.27-.47,2.36-1.41,3.26-.93.9-2.04,1.35-3.31,1.35s-2.36-.45-3.26-1.35Z"/>
    <path class="st0" d="M1075.12,662.08c-1.2-1-1.81-2.31-1.81-3.91s.53-2.95,1.61-4.22l27.5-31.61c.2-.34.3-.6.3-.8,0-.4-.3-.6-.9-.6h-23.28c-1.2,0-2.22-.42-3.06-1.25-.83-.84-1.25-1.86-1.25-3.06s.42-2.24,1.25-3.11c.84-.87,1.86-1.3,3.06-1.3h30.41c1.74,0,3.17.55,4.26,1.66,1.11,1.1,1.66,2.49,1.66,4.16,0,1.47-.47,2.84-1.41,4.11l-26.7,31.31c-.2.27-.3.54-.3.8,0,.4.3.6.9.6h23.68c1.2,0,2.24.44,3.11,1.3.87.87,1.3,1.91,1.3,3.11s-.43,2.22-1.3,3.06c-.87.84-1.91,1.25-3.11,1.25h-31.31c-1.88,0-3.41-.5-4.62-1.51Z"/>
    <path class="st0" d="M1136.11,657.56c-4.59-4.68-6.88-11.24-6.88-19.67,0-4.55.87-8.93,2.61-13.15,1.81-4.22,4.55-7.53,8.23-9.94,3.68-2.41,8.1-3.61,13.25-3.61s9.26,1.14,12.95,3.41c3.48,2.27,6.19,5.33,8.13,9.18,1.94,3.85,2.91,8.11,2.91,12.8,0,1.27-.43,2.36-1.3,3.26-.87.9-2.01,1.35-3.41,1.35h-33.92c.6,4.75,2.39,8.38,5.37,10.89,2.98,2.51,7.01,3.76,12.1,3.76,2.68,0,5.07-.25,7.17-.75,2.12-.5,4.24-1.29,6.38-2.36.47-.27,1.07-.4,1.81-.4,1.07,0,2.02.39,2.86,1.15.84.77,1.26,1.72,1.26,2.86,0,1.54-.9,2.81-2.71,3.81-2.81,1.54-5.49,2.66-8.03,3.36-2.54.7-5.72,1.05-9.53,1.05-8.23,0-14.64-2.34-19.21-7.03ZM1166.77,633.58c.87,0,1.27-.44,1.2-1.3-.27-2.67-1.07-4.92-2.41-6.72-1.47-2.14-3.3-3.75-5.47-4.82-2.17-1.07-4.43-1.61-6.77-1.61-2.14,0-4.38.5-6.72,1.51-2.34,1.14-4.2,2.83-5.57,5.07-1.37,2.24-2.15,4.87-2.35,7.88h28.1Z"/>
    <path class="st0" d="M1203.82,661.38c-3.88-2.14-6.96-5.27-9.23-9.38-2.28-4.11-3.41-8.82-3.41-14.1s1.17-10.17,3.51-14.25c2.28-4.01,5.25-7.09,8.93-9.23,3.68-2.14,7.66-3.21,11.94-3.21,6.55,0,12.24,2.51,17.06,7.53v-24.39c0-1.34.47-2.46,1.41-3.36.93-.9,2.04-1.35,3.31-1.35s2.35.47,3.27,1.41c.9.94,1.35,2.04,1.35,3.31v65.13c0,1.27-.46,2.36-1.35,3.26-.91.9-1.99,1.35-3.27,1.35s-2.38-.45-3.31-1.35c-.93-.9-1.41-1.99-1.41-3.26v-2.41c-4.82,5.02-10.51,7.53-17.06,7.53-4.08,0-8-1.07-11.74-3.21ZM1204.87,651.09c2.9,3.18,6.9,4.77,11.99,4.77,2.94,0,5.77-.67,8.48-2.01,2.7-1.34,5.13-3.15,7.27-5.42v-21.08c-2.14-2.27-4.57-4.08-7.27-5.42-2.72-1.34-5.54-2.01-8.48-2.01-5.09,0-9.09,1.59-11.99,4.77-2.92,3.18-4.37,7.58-4.37,13.2s1.45,10.02,4.37,13.2Z"/>
    <path class="st0" d="M1301.16,662.73c-.91-.9-1.36-1.99-1.36-3.26v-61.42c0-1.27.45-2.37,1.36-3.31.9-.94,1.98-1.41,3.26-1.41h23.38c8.83,0,15.6,1.86,20.33,5.57,4.71,3.71,7.07,8.68,7.07,14.9,0,4.08-1.12,7.76-3.37,11.04-2.24,3.28-5.43,5.65-9.58,7.13,4.35,1.27,7.5,4.06,9.43,8.38,1.94,4.32,2.91,9.15,2.91,14.5v4.62c0,1.27-.45,2.36-1.36,3.26-.9.9-1.98,1.35-3.26,1.35-1.41,0-2.54-.42-3.41-1.25s-1.3-1.96-1.3-3.36v-3.01c0-3.35-.3-6.46-.9-9.33-.67-3.15-2.19-5.74-4.57-7.78-2.37-2.04-5.7-3.06-9.98-3.06h-20.67v23.18c0,1.27-.47,2.36-1.41,3.26-.93.9-2.04,1.35-3.31,1.35s-2.36-.45-3.26-1.35ZM1327.2,627.46c5.82,0,10.38-1.15,13.7-3.46,3.3-2.31,4.96-5.47,4.96-9.48s-1.49-7.24-4.47-9.28c-2.97-2.04-7.87-3.06-14.7-3.06h-16.36c-.8,0-1.2.4-1.2,1.2v24.09h18.06Z"/>
    <path class="st0" d="M1378.35,657.56c-4.59-4.68-6.88-11.24-6.88-19.67,0-4.55.87-8.93,2.61-13.15,1.81-4.22,4.55-7.53,8.23-9.94s8.1-3.61,13.25-3.61,9.26,1.14,12.95,3.41c3.48,2.27,6.19,5.33,8.13,9.18,1.94,3.85,2.91,8.11,2.91,12.8,0,1.27-.43,2.36-1.3,3.26-.87.9-2.01,1.35-3.41,1.35h-33.92c.6,4.75,2.39,8.38,5.37,10.89,2.98,2.51,7.01,3.76,12.1,3.76,2.68,0,5.07-.25,7.17-.75,2.12-.5,4.24-1.29,6.38-2.36.47-.27,1.07-.4,1.81-.4,1.07,0,2.02.39,2.86,1.15.84.77,1.26,1.72,1.26,2.86,0,1.54-.9,2.81-2.71,3.81-2.81,1.54-5.49,2.66-8.03,3.36-2.54.7-5.72,1.05-9.53,1.05-8.23,0-14.64-2.34-19.21-7.03ZM1409.01,633.58c.87,0,1.27-.44,1.2-1.3-.27-2.67-1.07-4.92-2.41-6.72-1.47-2.14-3.3-3.75-5.47-4.82-2.17-1.07-4.43-1.61-6.77-1.61-2.14,0-4.38.5-6.72,1.51-2.34,1.14-4.2,2.83-5.57,5.07-1.37,2.24-2.15,4.87-2.35,7.88h28.1Z"/>
    <path class="st0" d="M1434.82,660.07c-1.13-.8-1.71-1.94-1.71-3.41,0-1.07.39-2.02,1.16-2.86.76-.84,1.72-1.25,2.86-1.25.67,0,1.27.14,1.81.4,2.28,1,4.49,1.76,6.62,2.26,2.14.5,4.49.75,7.03.75,7.36,0,11.04-2.34,11.04-7.03,0-1.47-.8-2.61-2.41-3.41-1.68-.8-4.49-1.71-8.43-2.71-3.88-.87-7.13-1.84-9.73-2.91-2.88-1.07-5.19-2.67-6.92-4.82-1.74-2.14-2.61-4.78-2.61-7.93,0-4.75,1.74-8.6,5.22-11.54,3.48-2.95,8.3-4.42,14.45-4.42,5.35,0,10.21.84,14.55,2.51.93.27,1.68.77,2.21,1.51s.8,1.54.8,2.41c0,1.07-.4,2.02-1.2,2.86-.8.84-1.78,1.25-2.91,1.25l-1.3-.2c-4.01-1.2-7.83-1.81-11.44-1.81s-6.25.64-8.33,1.91c-2.08,1.27-3.11,2.95-3.11,5.02,0,1.94.9,3.38,2.71,4.32,1.94.87,4.85,1.77,8.73,2.71,3.61.94,6.82,1.91,9.63,2.91,2.74,1.07,4.95,2.69,6.62,4.87,1.68,2.17,2.51,4.9,2.51,8.18,0,4.35-1.74,7.93-5.22,10.74-3.48,2.81-8.23,4.22-14.25,4.22-6.62,0-12.75-1.51-18.37-4.52Z"/>
    <path class="st0" d="M1493.6,657.56c-4.59-4.68-6.88-11.24-6.88-19.67,0-4.55.87-8.93,2.61-13.15,1.81-4.22,4.55-7.53,8.23-9.94,3.68-2.41,8.1-3.61,13.25-3.61s9.26,1.14,12.95,3.41c3.48,2.27,6.19,5.33,8.13,9.18,1.94,3.85,2.91,8.11,2.91,12.8,0,1.27-.43,2.36-1.3,3.26-.87.9-2.01,1.35-3.41,1.35h-33.92c.6,4.75,2.39,8.38,5.37,10.89,2.98,2.51,7.01,3.76,12.1,3.76,2.68,0,5.07-.25,7.17-.75,2.12-.5,4.24-1.29,6.38-2.36.47-.27,1.07-.4,1.81-.4,1.07,0,2.02.39,2.86,1.15.84.77,1.26,1.72,1.26,2.86,0,1.54-.9,2.81-2.71,3.81-2.81,1.54-5.49,2.66-8.03,3.36-2.54.7-5.72,1.05-9.53,1.05-8.23,0-14.64-2.34-19.21-7.03ZM1524.26,633.58c.87,0,1.27-.44,1.2-1.3-.27-2.67-1.07-4.92-2.41-6.72-1.47-2.14-3.3-3.75-5.47-4.82-2.17-1.07-4.43-1.61-6.77-1.61-2.14,0-4.38.5-6.72,1.51-2.34,1.14-4.2,2.83-5.57,5.07-1.37,2.24-2.15,4.87-2.35,7.88h28.1Z"/>
    <path class="st0" d="M1553.14,662.73c-.91-.9-1.36-1.99-1.36-3.26v-65.13c0-1.27.45-2.37,1.36-3.31.9-.94,1.98-1.41,3.26-1.41s2.45.45,3.37,1.35c.9.9,1.35,2.02,1.35,3.36v65.13c0,1.27-.47,2.36-1.41,3.26-.93.9-2.04,1.35-3.31,1.35s-2.36-.45-3.26-1.35Z"/>
    <path class="st0" d="M1583.27,662.73c-.91-.9-1.36-1.99-1.36-3.26v-65.13c0-1.27.45-2.37,1.36-3.31.9-.94,1.98-1.41,3.26-1.41s2.45.45,3.37,1.35c.9.9,1.35,2.02,1.35,3.36v65.13c0,1.27-.47,2.36-1.41,3.26-.93.9-2.04,1.35-3.31,1.35s-2.36-.45-3.26-1.35Z"/>
    <path class="st0" d="M1615.8,657.56c-4.59-4.68-6.88-11.24-6.88-19.67,0-4.55.87-8.93,2.61-13.15,1.81-4.22,4.55-7.53,8.23-9.94,3.68-2.41,8.1-3.61,13.25-3.61s9.26,1.14,12.95,3.41c3.48,2.27,6.19,5.33,8.13,9.18,1.94,3.85,2.91,8.11,2.91,12.8,0,1.27-.43,2.36-1.3,3.26-.87.9-2.01,1.35-3.41,1.35h-33.92c.6,4.75,2.39,8.38,5.37,10.89,2.98,2.51,7.01,3.76,12.1,3.76,2.68,0,5.07-.25,7.17-.75,2.12-.5,4.24-1.29,6.38-2.36.47-.27,1.07-.4,1.81-.4,1.07,0,2.02.39,2.86,1.15.84.77,1.26,1.72,1.26,2.86,0,1.54-.9,2.81-2.71,3.81-2.81,1.54-5.49,2.66-8.03,3.36s-5.72,1.05-9.53,1.05c-8.23,0-14.64-2.34-19.21-7.03ZM1646.45,633.58c.87,0,1.27-.44,1.2-1.3-.27-2.67-1.07-4.92-2.41-6.72-1.47-2.14-3.3-3.75-5.47-4.82-2.17-1.07-4.43-1.61-6.77-1.61-2.14,0-4.38.5-6.72,1.51-2.34,1.14-4.2,2.83-5.57,5.07-1.37,2.24-2.15,4.87-2.35,7.88h28.1Z"/>
    <path class="st0" d="M1675.33,662.73c-.91-.9-1.36-1.99-1.36-3.26v-43.05c0-1.27.45-2.37,1.36-3.31.9-.94,1.98-1.41,3.26-1.41s2.38.47,3.31,1.41c.93.94,1.41,2.04,1.41,3.31v4.01c4.62-6.16,9.84-9.23,15.66-9.23h.5c1.27,0,2.34.45,3.21,1.35.87.9,1.3,1.99,1.3,3.26s-.46,2.32-1.35,3.16c-.91.84-2.03,1.25-3.37,1.25h-.5c-3.14,0-6.04.75-8.68,2.26-2.64,1.51-4.89,3.66-6.77,6.47v30.51c0,1.27-.47,2.36-1.41,3.26-.93.9-2.04,1.35-3.31,1.35s-2.36-.45-3.26-1.35Z"/>
  </g>
  <g>
    <g>
      <path class="st0" d="M153.16,1093.92l6.18-1.72v-15.95h-5.39c-2.15,0-3.23-.93-3.23-2.8s1.08-2.73,3.23-2.73h5.39v-10.78c0-2.06.91-3.09,2.73-3.09s2.8,1.03,2.8,3.09v10.78h3.31c2.2,0,3.3.93,3.3,2.8s-1.1,2.73-3.3,2.73h-3.31v14.3l1.72-.65,2.08-.43c1.77,0,2.66.86,2.66,2.59,0,1.34-.89,2.35-2.66,3.02l-3.81,1.36v19.18c0,2.25-.5,3.89-1.51,4.92-1.01,1.03-2.63,1.52-4.88,1.47h-3.66c-2.01,0-3.02-.98-3.02-2.95s1.01-2.95,3.02-2.95h2.3c1.39,0,2.13-.77,2.23-2.3v-15.59l-.79.29-3.3.93-1.87.36c-1.96,0-2.95-1.01-2.95-3.02,0-1.48.91-2.44,2.73-2.87ZM170.76,1101.89l1.29-.22,4.02-7.69c-1.01-1.68-2.95-4.19-5.82-7.54-1.34-1.63-2.01-2.78-2.01-3.45,0-.81.22-1.44.65-1.87.43-.43,1.05-.65,1.87-.65.38,0,.74.11,1.08.32.33.22.74.56,1.22,1.04,1.05-2.92,1.77-5.12,2.15-6.61.43-1.68.91-2.9,1.44-3.66.53-.77,1.15-1.15,1.87-1.15,1.63,0,2.44.72,2.44,2.16,0,2.01-1.65,6.39-4.96,13.15l1.29,1.51,1.15,1.72,3.81-9.41c.53-1.29,1.37-1.94,2.51-1.94,1.68,0,2.51.79,2.51,2.37,0,.72-1.39,3.93-4.17,9.63-2.59,5.27-4.53,9.05-5.82,11.35l5.53-1.08.07-1.08c.1-1.72.37-3.02.83-3.88.45-.86,1.11-1.29,1.98-1.29,1.72,0,2.59.93,2.59,2.8,0,4.5-.74,8.6-2.23,12.28-1.39,3.35-3.93,6.37-7.62,9.05-3.54,2.59-6.2,3.88-7.97,3.88-2.01,0-3.02-.98-3.02-2.95,0-1.39.84-2.42,2.51-3.09,6.85-2.73,10.92-6.47,12.21-11.21-3.74,1.1-6.71,1.96-8.91,2.59-2.2.62-3.52.93-3.95.93-1.92,0-2.87-.96-2.87-2.87,0-1.72,1.44-2.78,4.31-3.16ZM173.41,1064.32h15.95v-4.6c0-1.91,1.01-2.87,3.02-2.87s2.87.96,2.87,2.87v4.6h17.39c2.01,0,3.02.89,3.02,2.66s-1.01,2.66-3.02,2.66h-39.22c-1.96,0-2.95-.89-2.95-2.66s.98-2.66,2.95-2.66ZM191.98,1119.13c-.89-.86-1.33-2.16-1.33-3.88v-27.51c-.86,1.58-1.57,2.67-2.12,3.27-.55.6-1.09.9-1.62.9-1.49,0-2.23-.81-2.23-2.44,0-.67.33-1.46,1.01-2.37,2.2-3.02,4.29-7.47,6.25-13.36.72-2.2,1.75-3.3,3.09-3.3,1.72,0,2.59.77,2.59,2.3,0,.48-.22,1.27-.65,2.37-.43,1.1-1.17,2.78-2.23,5.03h1.01c.81-.05,2.73-.07,5.75-.07,1.01-2.49,1.72-4.43,2.16-5.82.67-2.3,1.72-3.45,3.16-3.45,1.72,0,2.59.74,2.59,2.23,0,1.25-.93,3.59-2.8,7.04h6.47c1.82,0,2.73.81,2.73,2.44s-.91,2.51-2.73,2.51h-6.25v6.47h5.32c1.72,0,2.59.81,2.59,2.44,0,.77-.23,1.36-.68,1.8-.46.43-1.09.65-1.9.65h-5.32v6.54h4.88c2.01,0,3.02.81,3.02,2.44s-1.01,2.44-3.02,2.44h-4.88v7.54h6.68c1.82,0,2.73.86,2.73,2.59s-.91,2.51-2.73,2.51h-17.67c-1.68,0-2.96-.43-3.84-1.29ZM202.08,1091.48v-6.47h-5.03c-.86,0-1.29.43-1.29,1.29v5.17h6.32ZM202.08,1102.9v-6.54h-6.32v6.54h6.32ZM197.48,1115.33h4.6v-7.54h-6.32v5.89c0,1.01.57,1.56,1.72,1.65Z"/>
      <path class="st0" d="M244.6,1118.56v-31.61l-.22-.07c-5.7,7.66-9.55,11.49-11.57,11.49-1.87,0-2.8-1.05-2.8-3.16,0-1.05.67-2.18,2.01-3.38,7.09-6.27,12.4-13.53,15.95-21.77h-13.58c-2.3,0-3.45-.93-3.45-2.8s1.15-2.73,3.45-2.73h15.66l1.15-4.24c.57-2.2,1.65-3.3,3.23-3.3,2.25,0,3.38.96,3.38,2.87,0,.62-.11,1.27-.32,1.94-.21.67-.56,1.58-1.04,2.73h35.42c2.3,0,3.45.93,3.45,2.8s-1.15,2.73-3.45,2.73h-38l-3.45,7.4h29.24c2.54,0,4.38.55,5.53,1.65,1.15,1.1,1.65,2.9,1.51,5.39v29.88c.38,5.36-2.11,7.9-7.47,7.62h-6.25c-2.25,0-3.38-1.01-3.38-3.02s1.12-3.09,3.38-3.09h4.53c1.1,0,1.94-.3,2.51-.9.57-.6.86-1.5.86-2.69v-5.17h-30.39v11.42c0,2.35-.98,3.52-2.95,3.52s-2.95-1.17-2.95-3.52ZM280.88,1089.61v-3.66c0-.96-.26-1.71-.79-2.26-.53-.55-1.29-.83-2.3-.83h-25.5c-1.2,0-1.8.62-1.8,1.87v4.88h30.39ZM280.88,1101.82v-6.9h-30.39v6.9h30.39Z"/>
      <path class="st0" d="M309.82,1114.93c-.62-.65-.93-1.42-.93-2.34,0-.33.12-.81.36-1.44l18.32-43.25c.43-.96,1.01-1.7,1.72-2.23.72-.53,1.56-.79,2.51-.79h.72c.96,0,1.8.26,2.51.79.72.53,1.29,1.27,1.72,2.23l18.32,43.25c.24.62.36,1.1.36,1.44,0,.91-.31,1.69-.93,2.34s-1.41.97-2.37.97c-.72,0-1.35-.18-1.9-.54-.55-.36-.97-.87-1.26-1.55l-4.67-11.13h-24.28l-4.67,11.13c-.29.67-.71,1.19-1.26,1.55-.55.36-1.19.54-1.9.54-.96,0-1.75-.32-2.37-.97ZM341.79,1096.58l-9.05-21.77c-.14-.33-.34-.5-.57-.5s-.43.17-.57.5l-9.05,21.77h19.25Z"/>
      <path class="st0" d="M365.53,1131.42c-.65-.67-.97-1.46-.97-2.37v-47.34c0-.91.32-1.69.97-2.34s1.42-.97,2.33-.97,1.7.32,2.37.97c.67.65,1.01,1.43,1.01,2.34v1.72c3.45-3.59,7.52-5.39,12.21-5.39,3.11,0,5.94.74,8.48,2.23,2.78,1.53,4.97,3.78,6.57,6.75,1.6,2.97,2.41,6.35,2.41,10.13s-.81,7.3-2.44,10.13c-1.63,2.87-3.77,5.09-6.43,6.64-2.66,1.56-5.52,2.34-8.58,2.34-4.69,0-8.77-1.8-12.21-5.39v18.18c0,.96-.32,1.76-.97,2.41-.65.65-1.45.97-2.41.97s-1.69-.34-2.33-1.01ZM376.45,1108.57c1.94.96,3.96,1.44,6.07,1.44,3.64,0,6.5-1.14,8.58-3.41,2.08-2.27,3.12-5.42,3.12-9.45s-1.04-7.17-3.12-9.45c-2.08-2.27-4.95-3.41-8.58-3.41-2.11,0-4.13.48-6.07,1.44-1.94.96-3.68,2.25-5.21,3.88v15.09c1.53,1.63,3.27,2.92,5.21,3.88Z"/>
      <path class="st0" d="M410.87,1131.42c-.65-.67-.97-1.46-.97-2.37v-47.34c0-.91.32-1.69.97-2.34s1.42-.97,2.33-.97,1.7.32,2.37.97c.67.65,1.01,1.43,1.01,2.34v1.72c3.45-3.59,7.52-5.39,12.21-5.39,3.11,0,5.94.74,8.48,2.23,2.78,1.53,4.97,3.78,6.57,6.75,1.6,2.97,2.41,6.35,2.41,10.13s-.81,7.3-2.44,10.13c-1.63,2.87-3.77,5.09-6.43,6.64-2.66,1.56-5.52,2.34-8.58,2.34-4.69,0-8.77-1.8-12.21-5.39v18.18c0,.96-.32,1.76-.97,2.41-.65.65-1.45.97-2.41.97s-1.69-.34-2.33-1.01ZM421.78,1108.57c1.94.96,3.96,1.44,6.07,1.44,3.64,0,6.5-1.14,8.58-3.41,2.08-2.27,3.12-5.42,3.12-9.45s-1.04-7.17-3.12-9.45c-2.08-2.27-4.95-3.41-8.58-3.41-2.11,0-4.13.48-6.07,1.44-1.94.96-3.68,2.25-5.21,3.88v15.09c1.53,1.63,3.27,2.92,5.21,3.88Z"/>
      <path class="st0" d="M456.2,1114.93c-.65-.65-.97-1.42-.97-2.34v-46.62c0-.91.32-1.7.97-2.37.65-.67,1.42-1.01,2.33-1.01.96,0,1.76.32,2.41.97.65.65.97,1.45.97,2.41v46.62c0,.91-.34,1.69-1.01,2.34-.67.65-1.46.97-2.37.97s-1.69-.32-2.33-.97Z"/>
      <path class="st0" d="M475.81,1111.23c-3.28-3.35-4.92-8.05-4.92-14.08,0-3.26.62-6.39,1.87-9.41,1.29-3.02,3.26-5.39,5.89-7.11,2.63-1.72,5.79-2.59,9.48-2.59s6.63.81,9.27,2.44c2.49,1.63,4.43,3.82,5.82,6.57,1.39,2.75,2.08,5.81,2.08,9.16,0,.91-.31,1.69-.93,2.33-.62.65-1.44.97-2.44.97h-24.28c.43,3.4,1.71,6,3.84,7.79,2.13,1.8,5.02,2.69,8.66,2.69,1.92,0,3.63-.18,5.14-.54s3.03-.92,4.56-1.69c.33-.19.77-.29,1.29-.29.77,0,1.45.28,2.05.83.6.55.9,1.23.9,2.05,0,1.1-.65,2.01-1.94,2.73-2.01,1.1-3.93,1.9-5.75,2.41-1.82.5-4.1.75-6.82.75-5.89,0-10.48-1.68-13.76-5.03ZM497.75,1094.06c.62,0,.91-.31.86-.93-.19-1.91-.77-3.52-1.72-4.81-1.05-1.53-2.36-2.68-3.92-3.45-1.56-.77-3.17-1.15-4.85-1.15-1.53,0-3.14.36-4.81,1.08-1.68.81-3.01,2.02-3.99,3.63-.98,1.61-1.54,3.48-1.69,5.64h20.12Z"/>
      <path class="st0" d="M541.64,1074.52c0-1.82.45-3.21,1.36-4.17.91-.96,2.25-1.44,4.02-1.44h3.66c.38-2.16.84-5.2,1.36-9.12.1-.86.41-1.51.93-1.94.53-.43,1.22-.65,2.08-.65,2.39,0,3.42,1.22,3.09,3.66-.38,2.68-1.01,5.36-1.87,8.05h5.46c3.64,0,5.46,1.87,5.46,5.6l.07,40.88c0,3.69-1.84,5.53-5.53,5.53h-14.58c-1.82,0-3.2-.47-4.13-1.4-.93-.93-1.4-2.31-1.4-4.13v-40.88ZM561.4,1091.12v-14.37c0-1.58-.79-2.37-2.37-2.37h-9.12c-1.58,0-2.37.79-2.37,2.37v14.37h13.86ZM549.9,1115.47h9.12c1.58,0,2.37-.79,2.37-2.37v-16.67h-13.86v16.67c0,1.58.79,2.37,2.37,2.37ZM582.73,1121.29c-.57-.48-.86-1.22-.86-2.23,0-1.96,1.1-2.95,3.3-2.95,2.97,0,5.05-.06,6.25-.18s2.11-.39,2.73-.83c.62-.43,1.12-1.2,1.51-2.3.67-1.96,1.2-6.75,1.58-14.37s.57-14.85.57-21.7c0-1.82-1.05-2.73-3.16-2.73h-16.02c-.81,2.54-2.27,5.46-4.38,8.76-.67,1.1-1.51,1.65-2.51,1.65-.48,0-.98-.14-1.51-.43-.96-.53-1.44-1.27-1.44-2.23,0-.62.19-1.27.57-1.94,2.01-3.78,3.5-6.97,4.45-9.55,1.2-3.16,2.32-6.7,3.38-10.63.24-.81.61-1.45,1.11-1.9.5-.45,1.11-.68,1.83-.68.19,0,.53.05,1.01.14,1.44.34,2.16,1.2,2.16,2.59,0,.48-.07,1.01-.22,1.58-.34,1.39-.74,2.77-1.22,4.13-.48,1.37-.93,2.43-1.36,3.2h17.24c4.21,0,6.32,1.77,6.32,5.32,0,9-.24,17.68-.72,26.04-.48,8.36-1.29,13.95-2.44,16.77-.86,2.01-2.18,3.4-3.95,4.17-1.77.76-4.45,1.15-8.05,1.15-1.44,0-2.54-.03-3.3-.07-1.34-.05-2.3-.31-2.87-.79ZM576.2,1087.42c.48-.45,1.1-.68,1.87-.68s1.58.43,2.44,1.29c.86.86,1.96,2.28,3.3,4.24,2.78,4.17,4.17,6.92,4.17,8.26,0,.81-.25,1.46-.75,1.94-.5.48-1.21.72-2.12.72-.77,0-1.44-.27-2.01-.83s-1.15-1.38-1.72-2.48c-.91-1.63-2.25-3.81-4.02-6.54l-1.01-1.58c-.24-.33-.44-.74-.61-1.22-.17-.48-.25-.89-.25-1.22,0-.81.24-1.45.72-1.9Z"/>
      <path class="st0" d="M620.95,1118.92c0-1.87,1.08-2.8,3.23-2.8h2.01c.86,0,1.52-.24,1.97-.72.45-.48.71-1.15.75-2.01v-15.95c-3.93,1.39-6.3,2.08-7.11,2.08-1.87,0-2.8-1.03-2.8-3.09,0-1.53,1.29-2.61,3.88-3.23l6.03-1.51v-15.37h-6.25c-1.15,0-2-.23-2.55-.68-.55-.45-.83-1.16-.83-2.12,0-1.87,1.12-2.8,3.38-2.8h6.25v-10.34c0-2.25.91-3.38,2.73-3.38.96,0,1.66.28,2.12.83.45.55.68,1.4.68,2.55v10.34h3.59c2.25,0,3.38.93,3.38,2.8,0,.96-.28,1.66-.83,2.12-.55.46-1.4.68-2.55.68h-3.59v13.65c2.01-.72,3.23-1.08,3.66-1.08,1.63,0,2.44.84,2.44,2.51,0,1.29-1.82,2.59-5.46,3.88l-.65.22v19.25c0,2.54-.56,4.41-1.69,5.6-1.13,1.2-2.93,1.75-5.42,1.65h-3.09c-2.2,0-3.31-1.03-3.31-3.09ZM639.66,1116.94c.74-.55,1.83-.88,3.27-.97,4.41-.38,9.08-2.11,14.01-5.17-1.53-1.48-3.04-3.33-4.53-5.53-1.44-2.2-2.15-3.81-2.15-4.81,0-.57.25-1.06.75-1.47.5-.41,1.11-.61,1.83-.61,1.25,0,2.35.86,3.3,2.59,1.48,2.63,3.26,4.86,5.32,6.68,2.11-1.77,4.05-3.86,5.82-6.25,1.68-2.2,2.51-3.59,2.51-4.17,0-.53-.34-.79-1.01-.79h-18.46c-2.01,0-3.02-.91-3.02-2.73s1.01-2.66,3.02-2.66h21.26c1.68,0,2.98.34,3.92,1.01.93.67,1.4,1.63,1.4,2.87,0,.81-.31,1.89-.93,3.23-.57,1.2-1.44,2.63-2.59,4.31-2.44,3.64-4.84,6.49-7.18,8.55,3.78,2.11,9.08,3.69,15.88,4.74,1.72.29,2.59,1.25,2.59,2.87,0,2.16-1.05,3.23-3.16,3.23-2.83,0-6.15-.74-9.99-2.23-4.02-1.58-7.33-3.23-9.91-4.96-2.35,1.63-5.75,3.31-10.2,5.03-3.93,1.53-7.26,2.3-9.99,2.3-1.92,0-2.87-.96-2.87-2.87,0-.91.37-1.64,1.11-2.19ZM641.82,1061.45c.93-.43,2.36-.6,4.27-.5,3.74.14,10.82-.43,21.26-1.72l6.61-1.08,2.44-.65,1.65-.29c2.25,0,3.38,1.01,3.38,3.02,0,1.49-1.7,2.54-5.1,3.16-2.06.38-6.06.91-12,1.58-4.5.48-9.7.84-15.59,1.08l-3.66.22h-1.72c-1.96,0-2.95-.91-2.95-2.73,0-.96.47-1.65,1.4-2.08ZM641.42,1086.3c0-2.2.48-3.81,1.44-4.81.96-1.01,2.49-1.46,4.6-1.36h20.62l5.17-11.85c.72-1.58,1.77-2.37,3.16-2.37.91,0,1.62.18,2.12.54s.75.8.75,1.33c0,.86-.36,1.99-1.08,3.38l-4.67,8.98h3.3c2.2,0,3.81.49,4.81,1.47,1.01.98,1.46,2.55,1.36,4.71v5.82c0,2.3-.93,3.45-2.8,3.45s-2.73-1.15-2.73-3.45v-4.38c0-1.48-.81-2.27-2.44-2.37h-25.86c-1.53,0-2.35.79-2.44,2.37v4.81c0,2.16-.89,3.23-2.66,3.23s-2.66-1.12-2.66-3.38v-6.11ZM645.87,1067.91c1.24,0,2.27.86,3.09,2.59,1.77,3.64,2.66,5.77,2.66,6.39,0,1.68-.89,2.51-2.66,2.51-1.29,0-2.27-.93-2.95-2.8l-1.22-3.23c-.24-.67-.54-1.38-.9-2.12s-.54-1.16-.54-1.26c0-1.39.84-2.08,2.51-2.08ZM658.8,1066.91c.62,0,1.26.37,1.9,1.11.65.74,1.26,1.81,1.83,3.2,1.2,2.87,1.8,4.67,1.8,5.39,0,1.68-.89,2.51-2.66,2.51-1.25,0-2.2-.98-2.87-2.95-.72-2.25-1.39-4.02-2.01-5.32-.38-.86-.57-1.48-.57-1.87,0-1.39.86-2.08,2.59-2.08Z"/>
      <path class="st0" d="M699.39,1099.66c1.87-3.21,3.48-6.66,4.85-10.34,1.36-3.69,2.6-7.81,3.7-12.36h-6.32c-1.92,0-2.87-.91-2.87-2.73,0-1.68.96-2.51,2.87-2.51h6.75v-11.93c0-2.01.89-3.02,2.66-3.02.96,0,1.65.24,2.08.72.43.48.65,1.25.65,2.3v11.93h3.81c1.63,0,2.44.86,2.44,2.59s-.81,2.66-2.44,2.66h-3.81v7.9c.48-.48,1.01-.72,1.58-.72s1.65,1.22,3.23,3.66,2.37,4.05,2.37,4.81c0,1.29-.74,1.94-2.23,1.94-.67,0-1.46-.89-2.37-2.66l-2.59-5.1v32.76c0,1.05-.21,1.82-.65,2.3-.43.48-1.13.72-2.08.72-1.77,0-2.66-1.01-2.66-3.02v-30.24c-1.05,4.07-2.32,7.72-3.81,10.95-1.49,3.23-2.68,4.87-3.59,4.92-1.68.05-2.51-.81-2.51-2.59,0-.91.31-1.89.93-2.95ZM723.53,1114.68v-15.66c-2.92,3.21-4.93,4.81-6.03,4.81-.81,0-1.4-.22-1.76-.65-.36-.43-.54-1.1-.54-2.01,0-.81.57-1.72,1.72-2.73,3.97-3.35,7.26-6.85,9.84-10.49.77-1.05,1.63-1.58,2.59-1.58,1.77,0,2.66.65,2.66,1.94,0,.77-.57,1.82-1.72,3.16h10.56l.43-1.22c.43-1.29.98-2.26,1.65-2.91s1.39-.97,2.16-.97c1.72,0,2.59.67,2.59,2.01,0,.29-.13.68-.4,1.19-.26.5-.64,1.14-1.11,1.9h15.16c1.53,0,2.3.72,2.3,2.15s-.77,2.16-2.3,2.16h-14.8v3.88h12.57c1.53,0,2.3.69,2.3,2.08s-.77,2.01-2.3,2.01h-12.57v3.81h12.57c1.53,0,2.3.67,2.3,2.01s-.77,2.08-2.3,2.08h-12.57v4.31h15.3c1.58,0,2.37.72,2.37,2.16s-.79,2.16-2.37,2.16h-32.61c-3.78,0-5.68-1.87-5.68-5.6ZM720.65,1062.16h9.55v-2.3c0-1.82.89-2.73,2.66-2.73s2.59.91,2.59,2.73v2.3h10.27v-2.3c0-1.82.89-2.73,2.66-2.73s2.66.91,2.66,2.73v2.3h10.2c1.72,0,2.59.77,2.59,2.3s-.86,2.3-2.59,2.3h-10.2v1.94c0,1.82-.89,2.73-2.66,2.73s-2.66-.91-2.66-2.73v-1.94h-10.27v1.94c0,1.82-.89,2.73-2.66,2.73s-2.59-.91-2.59-2.73v-1.94h-9.55c-1.68,0-2.51-.77-2.51-2.3s.84-2.3,2.51-2.3ZM721.01,1077.39c0-3.26,1.63-4.89,4.88-4.89h8.84c3.3,0,4.96,1.63,4.96,4.89v3.73c0,3.26-1.65,4.89-4.96,4.89h-8.84c-3.26,0-4.88-1.58-4.88-4.74v-3.88ZM727.33,1081.85h6.03c.91,0,1.36-.5,1.36-1.51v-2.23c0-.91-.46-1.39-1.36-1.44h-6.03c-.86,0-1.34.48-1.44,1.44v2.23c0,.91.48,1.41,1.44,1.51ZM741.05,1099.66v-3.88h-10.63c-.86,0-1.29.43-1.29,1.29v2.59h11.93ZM741.05,1107.57v-3.81h-11.93v3.81h11.93ZM731,1115.97h10.06v-4.31h-11.93v2.37c0,1.25.62,1.89,1.87,1.94ZM742.2,1077.39c0-3.26,1.63-4.89,4.88-4.89h9.84c3.21,0,4.81,1.63,4.81,4.89v3.73c0,3.21-1.6,4.81-4.81,4.81h-9.84c-3.26,0-4.88-1.6-4.88-4.81v-3.73ZM748.53,1081.78h6.68c.96,0,1.46-.5,1.51-1.51v-2.15c0-.86-.5-1.34-1.51-1.44h-6.68c-.86,0-1.34.48-1.44,1.44v2.15c0,1.01.48,1.51,1.44,1.51Z"/>
      <path class="st0" d="M780.92,1069.56h18.32c2.11,0,3.16.91,3.16,2.73s-1.05,2.73-3.16,2.73h-18.32c-2.11,0-3.16-.91-3.16-2.73s1.05-2.73,3.16-2.73ZM782.79,1059.87h14.44c2.2,0,3.3.91,3.3,2.73s-1.1,2.73-3.3,2.73h-14.44c-2.16,0-3.23-.91-3.23-2.73s1.08-2.73,3.23-2.73ZM780.81,1079.69c.74-.48,1.66-.72,2.77-.72h13.08c2.11,0,3.16.89,3.16,2.66s-1.05,2.66-3.16,2.66h-13.79c-2.11,0-3.16-.89-3.16-2.66,0-.81.37-1.46,1.11-1.94ZM782.86,1088.74h13.79c2.11,0,3.16.89,3.16,2.66s-1.05,2.66-3.16,2.66h-13.79c-2.11,0-3.16-.89-3.16-2.66s1.05-2.66,3.16-2.66ZM779.77,1103.83c0-3.88,1.96-5.82,5.89-5.82h8.19c3.93,0,5.89,1.94,5.89,5.82v10.13c0,3.88-1.96,5.82-5.89,5.82h-8.19c-3.93,0-5.89-1.89-5.89-5.67v-10.27ZM786.67,1114.89h6.18c1.1,0,1.7-.6,1.8-1.8v-8.4c0-1.1-.6-1.7-1.8-1.8h-6.18c-1.1,0-1.7.6-1.8,1.8v8.4c0,1.2.6,1.8,1.8,1.8ZM801.54,1113.17c1.25-3.3,2.08-6.78,2.51-10.42.29-2.44,1.17-3.66,2.66-3.66s2.3.77,2.3,2.3c0,3.26-.79,7.5-2.37,12.72-.72,2.39-1.77,3.59-3.16,3.59-1.72,0-2.59-.81-2.59-2.44,0-.33.21-1.03.65-2.08ZM803.26,1090.25c0-.86,1.29-2.01,3.88-3.45,3.74-2.06,6.39-4.98,7.97-8.76l-5.89-3.09c-1.72-.96-2.59-1.82-2.59-2.59,0-1.63.84-2.44,2.51-2.44.53,0,2.99,1.08,7.4,3.23.29-1.2.48-2.24.57-3.12.1-.89.17-2.17.22-3.84h-10.34c-2.16,0-3.23-.89-3.23-2.66s1.08-2.73,3.23-2.73h28.3c4.36,0,6.54,1.72,6.54,5.17,0,1.01-.05,2.24-.14,3.7-.1,1.46-.17,2.5-.22,3.12l-.14,1.51c-.57,7.14-1.37,11.83-2.37,14.08-1.2,2.68-4.41,4.02-9.63,4.02-2.3,0-3.45-1.03-3.45-3.09,0-.96.44-1.68,1.33-2.16.89-.48,2.26-.77,4.13-.86,1.96-.05,3.11-1.58,3.45-4.6.62-5.75.93-10.2.93-13.36,0-1.44-.79-2.16-2.37-2.16h-10.56c-.24,3.16-.69,6.32-1.36,9.48,5.32,2.87,7.97,4.96,7.97,6.25,0,1.87-.96,2.8-2.87,2.8-.72,0-2.99-1.29-6.82-3.88-1.68,3.5-3.9,6.37-6.68,8.62-3.02,2.44-5.27,3.66-6.75,3.66-2.01,0-3.02-.96-3.02-2.87ZM812.38,1099.81c0-2.25.91-3.38,2.73-3.38s2.66,1.13,2.66,3.38v13.08c0,1.25.26,1.96.79,2.15,1.05.43,2.39.6,4.02.5,1.53-.1,2.67-.24,3.41-.43.74-.19,1.21-.43,1.4-.72.43-.81.65-2.18.65-4.1s.86-2.95,2.59-2.95c1.87,0,2.8,1.03,2.8,3.09,0,4.5-.74,7.35-2.23,8.55-1.34,1.15-3.57,1.72-6.68,1.72-5.51,0-8.86-.34-10.06-1.01-1.39-.81-2.08-2.49-2.08-5.03v-14.87ZM821.94,1092.12c.81,0,2.16.93,4.02,2.8,1.91,1.92,2.87,3.33,2.87,4.24,0,1.72-.93,2.59-2.8,2.59-.91,0-2.35-1.2-4.31-3.59-1.68-2.06-2.51-3.28-2.51-3.66,0-1.58.91-2.37,2.73-2.37ZM835.08,1099.09c1.05,0,1.94.57,2.66,1.72,4.12,6.51,6.18,10.68,6.18,12.5,0,2.01-.98,3.02-2.95,3.02-1.25,0-2.13-.65-2.66-1.94-2.06-4.93-3.81-8.69-5.24-11.28-.38-.67-.57-1.22-.57-1.65,0-1.58.86-2.37,2.59-2.37Z"/>
      <path class="st0" d="M893.48,1121.25c-.57-.5-.86-1.31-.86-2.41,0-2.16,1.17-3.23,3.52-3.23h6.47c2.2,0,3.35-1.12,3.45-3.38v-45.26h-45.11c-1.15,0-1.99-.24-2.51-.72-.53-.48-.79-1.22-.79-2.23s.26-1.68.79-2.16c.53-.48,1.37-.72,2.51-.72h58.48c2.3,0,3.45.96,3.45,2.87,0,1.01-.28,1.75-.83,2.23-.55.48-1.42.72-2.62.72h-7.25v46.91c.19,2.92-.38,5.05-1.72,6.39-1.34,1.34-3.47,1.91-6.39,1.72h-7.9c-1.2,0-2.08-.25-2.66-.75ZM864.53,1082.85c0-2.35.49-4.03,1.47-5.07.98-1.03,2.6-1.45,4.85-1.26h17.31c2.35,0,4.05.49,5.1,1.47,1.05.98,1.48,2.6,1.29,4.85v15.45c0,2.35-.5,4.03-1.51,5.06-1.01,1.03-2.63,1.45-4.88,1.26h-17.31c-2.35,0-4.04-.49-5.07-1.47-1.03-.98-1.45-2.6-1.26-4.85v-15.45ZM873.3,1099.09h12.5c1.91,0,2.92-1.01,3.02-3.02v-10.99c0-1.91-1.01-2.92-3.02-3.02h-12.5c-1.96,0-2.99,1.01-3.09,3.02v10.99c0,1.92,1.03,2.92,3.09,3.02Z"/>
      <path class="st0" d="M965.39,1101.96c-.24-.24-.36-.69-.36-1.36,0-.41.38-.9,1.15-1.47,1.46-1.05,2.65-2.04,3.56-2.95,1.56-1.56,2.34-2.93,2.34-4.13,0-.65-.22-1.02-.65-1.11-.07-.02-.17-.04-.31-.04s-.31.02-.52.07c-.22.05-.4.07-.54.07-2.06,0-3.57-.48-4.53-1.44-.91-.91-1.36-2.27-1.36-4.1,0-1.65.49-2.98,1.47-3.99,1.15-1.12,2.74-1.69,4.78-1.69s3.47.53,4.53,1.58c1.25,1.25,1.87,3.28,1.87,6.11,0,3.66-1.35,7.12-4.06,10.38-2.4,2.95-4.44,4.42-6.14,4.42-.57,0-.98-.12-1.22-.36Z"/>
      <path class="st0" d="M1019.62,1103.9h40.95v-4.88c-13.46.77-26.77,1.39-39.94,1.87-1.05.05-1.86-.14-2.41-.57-.55-.43-.83-1.05-.83-1.87,0-1.68.93-2.54,2.8-2.59,2.92-.1,7.49-.19,13.72-.29,2.54-.1,6.39-.19,11.57-.29v-3.81h-17.24c-2.2,0-3.8-.48-4.78-1.44-.98-.96-1.4-2.49-1.26-4.6v-9.55c0-2.16.48-3.72,1.44-4.71.96-.98,2.49-1.4,4.6-1.26h17.24v-3.16h-25.93c-.96,0-1.66-.19-2.12-.57-.46-.38-.68-1.01-.68-1.87,0-1.63.93-2.44,2.8-2.44h25.93v-2.59c0-1.82.96-2.73,2.87-2.73s2.87.91,2.87,2.73v2.59h26.58c1.87,0,2.8.81,2.8,2.44s-.93,2.44-2.8,2.44h-26.58v3.16h17.82c2.16,0,3.71.47,4.67,1.4.96.93,1.39,2.46,1.29,4.56v9.55c0,2.16-.47,3.72-1.4,4.71-.93.98-2.45,1.43-4.56,1.33h-.07c1.39.67,2.93,1.5,4.63,2.48,1.7.98,3.17,1.86,4.42,2.62,1.25.77,1.87,1.63,1.87,2.59,0,.86-.24,1.53-.72,2.01-.48.48-1.1.72-1.87.72-.38,0-.91-.2-1.58-.61-.67-.41-2.13-1.35-4.38-2.84-1.15.1-2.83.19-5.03.29v5.17h12.5c1.87,0,2.8.84,2.8,2.51s-.93,2.51-2.8,2.51h-12.5v7.97c0,1.72-.47,3.05-1.4,3.99-.93.93-2.26,1.4-3.99,1.4h-8.33c-2.11,0-3.16-.89-3.16-2.66,0-.96.25-1.66.75-2.12.5-.46,1.3-.68,2.41-.68h6.18c1.2,0,1.8-.6,1.8-1.8v-6.11h-40.95c-1.96,0-2.95-.84-2.95-2.51s.98-2.51,2.95-2.51ZM1045.48,1078.4v-3.88h-15.73c-1.2,0-1.8.6-1.8,1.8v2.08h17.53ZM1029.75,1086.88h15.73v-4.02h-17.53v2.23c0,1.2.6,1.8,1.8,1.8ZM1035.43,1118.52c-.77-.6-1.56-1.5-2.37-2.69l-1.29-1.51c-.72-.86-1.08-1.56-1.08-2.08,0-1.72.93-2.59,2.8-2.59,1.15,0,2.61.96,4.38,2.87s2.66,3.28,2.66,4.09c0,1.87-1.03,2.8-3.09,2.8-.57,0-1.25-.3-2.01-.9ZM1069.26,1078.4v-2.08c0-1.2-.6-1.8-1.8-1.8h-16.24v3.88h18.03ZM1067.47,1086.88c1.2,0,1.8-.6,1.8-1.8v-2.23h-18.03v4.02h16.24ZM1065.74,1094.85c-.96-.72-1.44-1.44-1.44-2.15,0-.1.05-.34.14-.72.1-.24.19-.41.29-.5h-13.51v3.66l14.51-.29Z"/>
      <path class="st0" d="M1106.32,1119.35v-26.08c-1.58,5.65-3.05,9.83-4.42,12.54-1.36,2.71-2.69,4.06-3.99,4.06-1.58,0-2.37-1.05-2.37-3.16,0-1.01.41-2.08,1.22-3.23,3.4-4.93,6.35-11.47,8.84-19.61h-6.25c-2.06,0-3.09-.84-3.09-2.51,0-1.77,1.03-2.66,3.09-2.66h6.97v-18.61c0-2.2.91-3.3,2.73-3.3s2.8,1.1,2.8,3.3v18.61h5.39c2.06,0,3.09.89,3.09,2.66,0,1.68-1.03,2.51-3.09,2.51h-5.39v7.83c.48-.62,1.15-.93,2.01-.93.91,0,2.39,1.56,4.45,4.67,2.06,3.21,3.09,5.24,3.09,6.11,0,1.53-.81,2.3-2.44,2.3-1.01,0-1.92-.77-2.73-2.3l-4.38-7.61v25.43c0,2.2-.93,3.3-2.8,3.3s-2.73-1.1-2.73-3.3ZM1097.49,1063.71c.43-.36,1.01-.54,1.72-.54,1.29,0,2.37,1.48,3.23,4.45.81,2.78,1.22,4.53,1.22,5.24,0,1.53-.81,2.3-2.44,2.3-1.2,0-2.23-1.6-3.09-4.81-.86-3.26-1.29-4.93-1.29-5.03,0-.72.22-1.26.65-1.62ZM1116.6,1064.54c.19-.86.91-1.29,2.15-1.29,1.58,0,2.37.79,2.37,2.37l-.14,1.15c-1.15,5.75-2.56,8.62-4.24,8.62-1.49,0-2.23-.72-2.23-2.16l2.08-8.69ZM1124.72,1080.2h13.86v-4.38h-10.27c-1.72,0-2.59-.74-2.59-2.23s.86-2.23,2.59-2.23h10.27v-4.17h-13c-1.77,0-2.66-.79-2.66-2.37s.89-2.37,2.66-2.37h13v-2.73c0-1.91.91-2.87,2.73-2.87.91,0,1.58.23,2.01.68.43.46.65,1.19.65,2.19v2.73h13.15c1.82,0,2.73.79,2.73,2.37s-.91,2.37-2.73,2.37h-13.15v4.17h10.56c1.68,0,2.51.74,2.51,2.23s-.84,2.23-2.51,2.23h-10.56v4.38h14.58c1.77,0,2.66.79,2.66,2.37s-.89,2.37-2.66,2.37h-33.84c-1.82,0-2.73-.79-2.73-2.37s.91-2.37,2.73-2.37ZM1125.65,1094.06c0-3.93,1.96-5.89,5.89-5.89h19.4c3.93,0,5.89,1.96,5.89,5.89v20.98c0,2.44-.54,4.21-1.62,5.32s-2.84,1.65-5.28,1.65h-3.66c-1.01,0-1.77-.23-2.3-.68-.53-.46-.79-1.09-.79-1.9,0-1.77,1.03-2.66,3.09-2.66h3.02c.72,0,1.28-.2,1.69-.61.41-.41.61-.97.61-1.69v-4.24h-20.62v9.2c0,2.01-.89,3.02-2.66,3.02s-2.66-1.01-2.66-3.02v-25.36ZM1151.58,1097.22v-2.23c0-1.34-.67-2.01-2.01-2.01h-16.6c-1.34,0-2.01.67-2.01,2.01v2.23h20.62ZM1151.58,1105.55v-3.66h-20.62v3.66h20.62Z"/>
      <path class="st0" d="M1176.79,1113.74c4.45-6.03,6.85-13.67,7.18-22.92l.22-8.4c.1-3.54.14-6.42.14-8.62h-5.39c-1.1,0-1.92-.22-2.44-.65-.53-.43-.79-1.1-.79-2.01,0-1.77,1.08-2.66,3.23-2.66h8.84v-8.33c0-2.11.98-3.16,2.95-3.16s2.95,1.05,2.95,3.16v8.33h9.7c2.16,0,3.23.89,3.23,2.66,0,.91-.26,1.58-.79,2.01-.53.43-1.34.65-2.44.65h-13.22l-.07,7.76c-.05.38-.07.98-.07,1.8h8.05c3.74,0,5.6,1.68,5.6,5.03,0,.43-.02.85-.07,1.26-.05.41-.07.83-.07,1.26-.19,4.69-.5,9.52-.93,14.47-.43,4.96-.93,8.42-1.51,10.38-1.15,3.88-4.77,5.82-10.85,5.82-1.87,0-2.8-.98-2.8-2.95,0-1.63,1.32-2.56,3.95-2.8,1.1-.1,1.89-.22,2.37-.36.48-.14.84-.36,1.08-.65.53-.57,1.01-2.32,1.44-5.24.43-3.21.81-8.31,1.15-15.3.1-1.53.14-2.68.14-3.45,0-1.44-.77-2.16-2.3-2.16h-5.39c-.29,8.38-1.84,15.88-4.67,22.49-2.59,5.99-4.96,8.98-7.11,8.98-1.87,0-2.8-1.03-2.8-3.09,0-.81.5-1.91,1.51-3.3ZM1204.31,1086.66c0-.91.55-1.94,1.65-3.09,5.79-6.51,9.72-14.46,11.78-23.85.43-1.82,1.29-2.73,2.59-2.73,1.96,0,2.95.79,2.95,2.37l-.29,1.94c3.93,9.29,9.24,16.79,15.95,22.49,1.15.91,1.72,1.82,1.72,2.73,0,2.06-.98,3.09-2.95,3.09-2.4,0-6.08-3.64-11.06-10.92-1.82-2.59-3.69-6.3-5.6-11.13-2.11,5.84-4.69,11.06-7.76,15.66-1.39,2.06-2.62,3.64-3.7,4.74-1.08,1.1-1.93,1.65-2.55,1.65-1.82,0-2.73-.98-2.73-2.95ZM1211.28,1106.56c1.77,0,5.41.98,10.92,2.95,5.56,2.01,9.46,3.59,11.71,4.74,2.39,1.24,3.59,2.49,3.59,3.74,0,1.05-.24,1.87-.72,2.44-.48.57-1.17.86-2.08.86-.77,0-1.96-.43-3.59-1.29-5.51-2.87-12.4-5.56-20.69-8.05-1.44-.43-2.16-1.25-2.16-2.44,0-1.96,1.01-2.95,3.02-2.95ZM1215.26,1088.74c.5-.43,1.19-.65,2.05-.65.67,0,1.64.25,2.91.75,1.27.5,2.72,1.28,4.35,2.34,2.39,1.53,4.1,2.75,5.1,3.66,1.01.91,1.53,1.7,1.58,2.37.05,1.01-.16,1.77-.61,2.3-.46.53-1.16.84-2.12.93-.72.1-2.23-.65-4.53-2.23-2.4-1.68-4.57-3.14-6.54-4.38-1.05-.67-1.81-1.26-2.26-1.76-.46-.5-.68-1.09-.68-1.76,0-.62.25-1.15.75-1.58Z"/>
      <path class="st0" d="M1255.09,1110.44c1.24-3.06,1.94-6.9,2.08-11.49.05-2.11.89-3.16,2.51-3.16s2.44.91,2.44,2.73c0,2.83-.43,6.32-1.29,10.49-.86,4.26-2.11,6.39-3.74,6.39-1.77,0-2.66-.81-2.66-2.44,0-.62.22-1.46.65-2.51ZM1257.17,1087.74l2.73-.14.5-.07,4.89-7.18c-3.31-2.97-5.99-5.17-8.05-6.61-1.34-.91-2.01-1.82-2.01-2.73,0-1.77.91-2.66,2.73-2.66.62,0,1.41.38,2.37,1.15l.07.07c2.01-3.5,3.57-6.75,4.67-9.77.67-1.96,1.8-2.95,3.38-2.95,1.96,0,2.95.91,2.95,2.73,0,1.53-2.37,5.82-7.11,12.86l3.88,3.3v-.07l4.45-7.9c.72-1.24,1.65-1.87,2.8-1.87,1.91,0,2.87.89,2.87,2.66,0,2.06-4.05,8.31-12.14,18.75l.57-.07h.86l6.68-.36-.65-1.87c-.29-.72-.43-1.34-.43-1.87,0-1.39.72-2.08,2.15-2.08,1.01,0,2.16,1.6,3.45,4.81,1.29,3.21,1.94,5.2,1.94,5.96,0,1.63-.86,2.44-2.59,2.44-1.15,0-2.01-1.05-2.59-3.16l-4.81.5v27.95c0,1.96-.86,2.95-2.59,2.95s-2.66-.98-2.66-2.95v-27.37l-8.12.93c-.96.1-1.68-.12-2.16-.65-.48-.53-.72-1.27-.72-2.23,0-1.53.89-2.37,2.66-2.51ZM1274.06,1096.47c.43-.36,1.08-.54,1.94-.54,1.2,0,1.96.84,2.3,2.51l.43,2.08c.86,3.98,1.29,6.3,1.29,6.97,0,1.68-.86,2.51-2.59,2.51-1.53,0-2.49-1.65-2.87-4.96l-1.01-6.97c-.1-.72.07-1.26.5-1.62ZM1279.88,1112.52c1.96-1.44,3.42-2.75,4.38-3.95,1.39-1.68,2.49-3.33,3.3-4.96.86-1.82,1.29-3.11,1.29-3.88,0-.62-.48-.93-1.44-.93h-5.17c-1.68,0-2.51-.84-2.51-2.51s.84-2.44,2.51-2.44h7.69c2.78,0,4.17,1.13,4.17,3.38,0,4.17-1.77,8.69-5.32,13.58-3.59,4.98-6.54,7.47-8.84,7.47-1.72,0-2.59-.91-2.59-2.73,0-.77.84-1.77,2.51-3.02ZM1281.6,1083.14v-12.72c0-2.11.48-3.66,1.44-4.67.96-1.01,2.51-1.51,4.67-1.51h6.54l1.29-3.88c.38-1.2.86-2.08,1.44-2.66s1.27-.86,2.08-.86c1.92,0,2.87.79,2.87,2.37,0,.96-.72,2.63-2.16,5.03h11.21c4.31,0,6.32,2.06,6.03,6.18v12.72c0,2.11-.48,3.66-1.44,4.67-.96,1.01-2.49,1.51-4.6,1.51h-8.69v2.73c.72,1.92,1.89,4.24,3.52,6.97l.14.07c2.35-1.72,4.72-3.83,7.11-6.32.96-1.01,1.82-1.51,2.59-1.51.96,0,1.65.22,2.08.65s.65,1.1.65,2.01c0,1.58-3.33,4.53-9.99,8.84v.14c3.26,4.02,6.56,7.14,9.91,9.34,1.25.82,1.87,1.77,1.87,2.87,0,2.11-.96,3.16-2.87,3.16-.77,0-1.7-.42-2.8-1.26-1.1-.84-2.47-2.14-4.1-3.92-3.21-3.5-5.92-7.9-8.12-13.22v15.45c0,2.44-.54,4.21-1.62,5.32-1.08,1.1-2.79,1.56-5.14,1.36h-3.59c-.96,0-1.65-.22-2.08-.65-.43-.43-.65-1.1-.65-2.01,0-1.01.22-1.72.65-2.16s1.12-.65,2.08-.65h2.44c.81,0,1.44-.23,1.87-.68.43-.45.67-1.09.72-1.9v-24.64h-9.27c-4.36,0-6.39-2.06-6.11-6.18ZM1311.34,1074.23v-2.95c0-1.39-.72-2.11-2.16-2.15h-19.9c-1.34,0-2.06.72-2.16,2.15v2.95h24.21ZM1289.29,1084.43h19.9c1.34,0,2.06-.72,2.16-2.16v-3.3h-24.21v3.3c0,1.34.72,2.06,2.16,2.16Z"/>
      <path class="st0" d="M1334.39,1115.18c0-1.92,1.1-2.87,3.31-2.87h23.42v-51.58c0-2.35,1.03-3.52,3.09-3.52s2.95,1.17,2.95,3.52v16.67h22.27c2.25,0,3.38.96,3.38,2.87s-1.13,2.95-3.38,2.95h-22.27v29.09h28.74c2.3,0,3.45.96,3.45,2.87s-1.15,2.95-3.45,2.95h-58.19c-2.2,0-3.31-.98-3.31-2.95Z"/>
      <path class="st0" d="M1441.21,1121.5c-.57-.57-.86-1.29-.86-2.16,0-.29.07-.65.22-1.08l19.04-55.67c.19-.62.54-1.12,1.04-1.51.5-.38,1.11-.57,1.83-.57.86,0,1.58.29,2.16.86.57.57.86,1.29.86,2.16,0,.29-.07.65-.22,1.08l-19.04,55.68c-.19.62-.54,1.12-1.04,1.51-.5.38-1.11.57-1.83.57-.86,0-1.58-.29-2.16-.86Z"/>
      <path class="st0" d="M1509.44,1065.9c0-2.2.49-3.82,1.47-4.85.98-1.03,2.57-1.5,4.78-1.4h14.08c2.06,0,3.56.46,4.49,1.36.93.91,1.35,2.42,1.26,4.53v16.16c0,2.01-.44,3.48-1.33,4.42s-2.36,1.4-4.42,1.4h-14.87v31.47c0,2.2-.91,3.3-2.73,3.3-.91,0-1.59-.26-2.05-.79-.46-.53-.68-1.37-.68-2.51v-53.09ZM1530.28,1070.93v-3.23c0-1.2-.18-1.99-.54-2.37-.36-.38-1.11-.57-2.26-.57h-9.48c-1.25,0-2.07.21-2.48.65-.41.43-.61,1.27-.61,2.51v3.02h15.37ZM1527.47,1082.5c1.15,0,1.9-.18,2.26-.54s.54-1.11.54-2.26v-3.66h-15.37v6.47h12.57ZM1553.34,1121.4c-.53-.46-.79-1.19-.79-2.19s.26-1.75.79-2.23c.53-.48,1.36-.72,2.51-.72h4.45c1.05,0,1.87-.29,2.44-.86.57-.57.86-1.39.86-2.44v-25.43h-15.73c-2.06,0-3.57-.48-4.53-1.44-.96-.96-1.39-2.42-1.29-4.38v-16.16c0-2.16.47-3.7,1.4-4.63s2.41-1.35,4.42-1.26h14.94c2.25,0,3.89.5,4.92,1.51,1.03,1.01,1.47,2.59,1.33,4.74v48.78c0,2.73-.59,4.69-1.76,5.89-1.17,1.2-3.05,1.7-5.64,1.51h-5.82c-1.15,0-1.99-.23-2.51-.68ZM1563.61,1070.93v-3.02c0-1.25-.22-2.08-.65-2.51s-1.27-.65-2.51-.65h-10.27c-1.15,0-1.92.19-2.3.57s-.57,1.17-.57,2.37v3.23h16.31ZM1547.88,1081.96c.38.36,1.15.54,2.3.54h13.43v-6.47h-16.31v3.66c0,1.15.19,1.9.57,2.26Z"/>
      <path class="st0" d="M1586.45,1066.51c.53-.45,1.34-.68,2.44-.68h25.65v-5.67c0-2.11,1.08-3.16,3.23-3.16s3.23,1.05,3.23,3.16v5.67h26.72c2.2,0,3.3.93,3.3,2.8,0,1.01-.28,1.74-.83,2.19-.55.46-1.38.68-2.48.68h-58.84c-1.1,0-1.92-.23-2.44-.68-.53-.45-.79-1.19-.79-2.19s.26-1.66.79-2.12ZM1614.75,1119.06v-31.82h-13.22c-1.2,0-2.12.31-2.77.93-.65.62-.97,1.53-.97,2.73v21.77c0,1.1-.24,1.92-.72,2.44-.48.53-1.25.79-2.3.79-2.01,0-3.02-1.08-3.02-3.23v-23.71c-.34-5.27,2.11-7.71,7.33-7.33h15.66v-5.82c0-1.87,1.01-2.8,3.02-2.8s3.09.93,3.09,2.8v5.82h16.6c5.27-.38,7.71,2.06,7.33,7.33v19.11c.38,5.56-2.2,8.14-7.76,7.76h-5.24c-2.11,0-3.16-1.03-3.16-3.09s1.05-3.23,3.16-3.23h3.45c2.35,0,3.52-1.17,3.52-3.52v-15.09c0-1.2-.31-2.11-.93-2.73-.62-.62-1.53-.93-2.73-.93h-14.22v31.82c0,2.2-1.03,3.3-3.09,3.3s-3.02-1.1-3.02-3.3Z"/>
      <path class="st0" d="M1666.33,1073.23c4.07-3.64,7.42-8.05,10.06-13.22,1.05-2.06,2.23-3.09,3.52-3.09.96,0,1.65.19,2.08.57.43.38.65.98.65,1.8,0,.43-.17,1.01-.5,1.72,6.85,4.12,10.27,6.97,10.27,8.55,0,1.72-.89,2.59-2.66,2.59-.72,0-1.77-.65-3.16-1.94-1.2-1.2-3.42-2.95-6.68-5.25-2.15,3.64-4.88,7.18-8.19,10.63l.79-.07h14.65c1.92,0,2.87.81,2.87,2.44s-.96,2.51-2.87,2.51h-5.17v6.54h7.25c2.01,0,3.02.86,3.02,2.59s-1.01,2.59-3.02,2.59h-7.25v20.12l7.9-.93c.77-.1,1.36.08,1.8.54.43.46.65,1.09.65,1.9,0,1.05-.41,1.77-1.22,2.16-1.15.48-5.8,1.27-13.94,2.37l-8.48,1.22c-.91.14-1.62-.06-2.12-.61-.5-.55-.75-1.31-.75-2.26,0-.86.38-1.56,1.15-2.08.77-.53,1.89-.84,3.38-.93l6.68-.79v-20.69h-7.33c-2.01,0-3.02-.86-3.02-2.59s1.01-2.59,3.02-2.59h7.33v-6.54h-4.31c-.96,0-1.66-.2-2.12-.61-.46-.41-.68-1.04-.68-1.9l.07-.72c-.96.82-1.8,1.22-2.51,1.22-1.68,0-2.51-.91-2.51-2.73,0-.81.45-1.65,1.36-2.51ZM1668.77,1098.3c0-1.82.81-2.73,2.44-2.73s2.37.91,2.37,2.73v8.12c0,1.77-.81,2.66-2.44,2.66-.77,0-1.35-.23-1.76-.68-.41-.45-.61-1.11-.61-1.97v-8.12ZM1685.22,1098.3c0-1.82.79-2.73,2.37-2.73s2.44.84,2.44,2.51v7.47c0,1.72-.81,2.59-2.44,2.59s-2.37-.86-2.37-2.59v-7.25ZM1695.56,1061.8c.53-.38,1.08-.57,1.65-.57.81,0,1.54.35,2.19,1.04.65.69,1.42,1.86,2.33,3.48,1.44,2.63,2.16,4.26,2.16,4.88,0,.81-.23,1.4-.68,1.76-.46.36-1.19.54-2.19.54-.62,0-1.23-.27-1.83-.83-.6-.55-1.16-1.35-1.69-2.41-.72-1.48-1.35-2.85-1.9-4.09-.55-1.25-.83-2.08-.83-2.51,0-.48.26-.91.79-1.29ZM1695.71,1119.06v-36.93c0-2.25.49-3.9,1.47-4.96.98-1.05,2.57-1.51,4.78-1.36h5.6v-15.3c0-2.25.93-3.38,2.8-3.38s2.73,1.13,2.73,3.38v15.3h6.68c2.3,0,3.96.51,4.99,1.54,1.03,1.03,1.47,2.62,1.33,4.78v32.83c.19,2.54-.31,4.41-1.51,5.6-1.2,1.2-3.07,1.7-5.6,1.51h-3.74c-2.2,0-3.3-.93-3.3-2.8s1.1-2.87,3.3-2.87h2.8c1.63,0,2.49-.89,2.59-2.66v-8.48h-19.68v13.79c0,2.11-.89,3.16-2.66,3.16s-2.59-1.05-2.59-3.16ZM1720.64,1088.24v-5.03c0-1.39-.74-2.13-2.23-2.23h-15.3c-1.34,0-2.06.74-2.15,2.23v5.03h19.68ZM1720.64,1100.38v-7.26h-19.68v7.26h19.68ZM1717.98,1068.2l2.44-5.53c.53-1.29,1.51-1.94,2.95-1.94,1.92,0,2.87.84,2.87,2.51,0,.29-.19.91-.57,1.87s-.93,2.11-1.65,3.45c-1.53,2.92-2.87,4.38-4.02,4.38-1.92,0-2.87-.79-2.87-2.37,0-.33.29-1.12.86-2.37Z"/>
      <path class="st0" d="M1753.93,1094.13c-1.03-.91-1.47-2.37-1.33-4.38v-16.81c-2.87,2.87-4.69,4.31-5.46,4.31-1.82,0-2.73-.93-2.73-2.8,0-.81.67-1.82,2.01-3.02,3.5-3.02,6.99-7.21,10.49-12.57.81-1.29,1.8-1.94,2.95-1.94,2.01,0,3.02.77,3.02,2.3,0,.62-.65,1.72-1.94,3.3l-.72,1.01h17.03l1.51-3.38c.86-1.87,2.01-2.8,3.45-2.8,2.25,0,3.38.72,3.38,2.15,0,.48-.69,1.68-2.08,3.59l-.29.43h22.92c1.77,0,2.66.77,2.66,2.3s-.89,2.3-2.66,2.3h-23.85v4.53h20.83c1.63,0,2.44.72,2.44,2.15s-.81,2.08-2.44,2.08h-20.83v4.67h20.83c1.63,0,2.44.72,2.44,2.16s-.81,2.08-2.44,2.08h-20.83v5.1h25.29c1.68,0,2.51.77,2.51,2.3s-.84,2.3-2.51,2.3h-48.63c-2.3,0-3.96-.45-4.99-1.37ZM1751.81,1105.99c0-2.16.51-3.71,1.55-4.67,1.03-.96,2.74-1.39,5.14-1.29h40.3c2.39,0,4.13.48,5.21,1.44,1.08.96,1.55,2.47,1.4,4.53v7.97c0,2.15-.51,3.71-1.54,4.67-1.03.96-2.77,1.39-5.21,1.29h-40.16c-2.49,0-4.27-.47-5.35-1.4-1.08-.93-1.52-2.46-1.33-4.56v-7.97ZM1758.35,1114.32c.43.43,1.05.67,1.87.72h36.71c.77,0,1.36-.21,1.8-.65.43-.43.67-1.05.72-1.87v-5.1c0-1.58-.84-2.42-2.51-2.51h-36.71c-.77,0-1.37.22-1.8.65s-.67,1.05-.72,1.87v5.1c0,.77.22,1.36.65,1.8ZM1776.81,1072.65v-4.53h-16.95c-1.1,0-1.65.53-1.65,1.58v2.95h18.61ZM1776.81,1081.56v-4.67h-18.61v4.67h18.61ZM1760.79,1090.9h16.02v-5.1h-18.61v2.51c0,1.63.86,2.49,2.59,2.59Z"/>
      <path class="st0" d="M1841.53,1118.99c0-1.39,1.2-2.42,3.59-3.09,6.13-1.72,11.52-4.24,16.16-7.54-6.27-5.46-11.73-13.15-16.38-23.06-1.68,11.3-5.2,20.36-10.56,27.15-3.35,4.36-5.82,6.54-7.4,6.54-1.92,0-2.87-1.15-2.87-3.45,0-.86.57-1.87,1.72-3.02,5.03-4.93,8.69-10.87,10.99-17.82,2.49-7.47,3.81-17,3.95-28.59h-10.2c-2.49,0-3.74-.98-3.74-2.95s1.24-3.02,3.74-3.02h33.69c4.07,0,6.11,1.27,6.11,3.81l-.57,2.95-2.51,10.7v.29c0,.34.15.61.47.83.31.22.73.32,1.26.32h8.55c3.78,0,5.68,1.32,5.68,3.95,0,2.49-1.29,6.37-3.88,11.64-2.59,5.22-5.58,9.65-8.98,13.29,4.69,2.92,9.79,5.13,15.3,6.61,2.49.67,3.74,1.77,3.74,3.31,0,2.25-1.05,3.38-3.16,3.38-1.58,0-4.53-.91-8.84-2.73-4.55-1.92-8.43-4.05-11.64-6.39-3.69,2.64-7.61,4.91-11.78,6.82-4.5,2.06-7.71,3.09-9.63,3.09s-2.8-1.01-2.8-3.02ZM1854.17,1091.4c3.21,5.17,7.06,9.58,11.57,13.22,3.3-3.45,5.87-6.97,7.69-10.56,1.96-3.88,2.95-6.49,2.95-7.83,0-.91-.55-1.36-1.65-1.36h-8.76c-1.82,0-3.17-.33-4.06-1.01-.89-.67-1.33-1.7-1.33-3.09,0-.38.62-3.21,1.87-8.48.05-.38.24-1.27.57-2.66l.43-1.87c.14-.53.01-.93-.39-1.22-.41-.29-.97-.43-1.69-.43h-14.94c-.05.53-.07,1.34-.07,2.44,0,.81-.05,2.08-.14,3.81l-.07.93c2.16,6.9,4.84,12.93,8.05,18.1Z"/>
      <path class="st0" d="M1904.74,1114.53c2.25-4.31,3.47-11.21,3.66-20.69l.07-27.59c0-4.45,2.04-6.68,6.11-6.68h8.69c2.2,0,3.8.48,4.78,1.44.98.96,1.42,2.49,1.33,4.6v48.78c0,2.63-.72,4.6-2.16,5.89-1.2,1.15-2.92,1.68-5.17,1.58h-3.02c-2.06,0-3.09-.98-3.09-2.95s1.01-2.95,3.02-2.95h2.3c.77,0,1.37-.22,1.8-.65s.67-1.05.72-1.87v-16.16h-10.06c-.14,7.62-.93,13.43-2.37,17.46-.77,2.16-1.56,3.75-2.37,4.78-.81,1.03-1.7,1.54-2.66,1.54-2.01,0-3.02-.96-3.02-2.87,0-.57.48-1.8,1.44-3.66ZM1913.87,1075.96h9.91v-9.12c0-.62-.19-1.11-.57-1.47s-.91-.54-1.58-.54h-5.6c-1.49,0-2.23.81-2.23,2.44l.07,8.69ZM1923.78,1092.26v-11.28h-9.91v11.28h9.91ZM1934.41,1118.85v-52.73c0-2.3.5-3.97,1.51-5.03,1.01-1.05,2.63-1.51,4.88-1.36h18.68c2.2-.19,3.84.24,4.92,1.29,1.08,1.05,1.57,2.68,1.47,4.88v6.47c0,2.97-.91,5.1-2.73,6.39-1.82,1.25-5.6,1.87-11.35,1.87-2.4,0-3.59-1.01-3.59-3.02s1.75-3.02,5.24-3.02c2.73,0,4.64-.22,5.75-.65.62-.19.93-.93.93-2.23v-3.95c0-1.63-.74-2.44-2.23-2.44h-15.3c-.77,0-1.36.22-1.8.65s-.67,1.05-.72,1.87v15.59h21.55c3.5,0,5.24,1.25,5.24,3.74,0,2.11-.96,5.36-2.87,9.77-1.92,4.36-4.1,8.24-6.54,11.64,2.25,2.4,5.44,4.67,9.55,6.82,1.29.67,1.94,1.65,1.94,2.95,0,.91-.38,1.72-1.15,2.44-.62.57-1.25.86-1.87.86-2.54,0-6.56-2.83-12.07-8.48-4.93,5.51-8.43,8.26-10.49,8.26-1.77,0-2.66-1.03-2.66-3.09,0-.81,1.32-2.25,3.95-4.31,2.59-2.11,4.45-3.83,5.6-5.17-2.11-2.63-3.81-5.63-5.1-8.98-1.29-3.26-1.94-5.58-1.94-6.97s.96-2.15,2.87-2.15c.96,0,1.65.31,2.08.93l2.01,5.75c.67,1.96,1.87,4.19,3.59,6.68,1.77-2.73,3.28-5.41,4.53-8.05,1.48-3.21,2.23-5.27,2.23-6.18,0-.72-.46-1.08-1.36-1.08h-19.11v30.03c0,2.3-.96,3.45-2.87,3.45s-2.8-1.15-2.8-3.45Z"/>
      <path class="st0" d="M1985.63,1102.47c4.07-4.6,7.02-9.84,8.84-15.73h-8.62c-1.87,0-2.8-.84-2.8-2.51s.93-2.51,2.8-2.51h22.84c2.97,0,4.45.93,4.45,2.8,0,.81-1.08,3.16-3.23,7.04-2.16,3.88-3.69,5.82-4.6,5.82-1.87,0-2.8-.79-2.8-2.37,0-.43.69-1.68,2.08-3.73,1.34-1.96,2.01-3.28,2.01-3.95,0-.38-.24-.57-.72-.57h-4.96v28.02c.38,5.03-1.96,7.4-7.04,7.11h-3.66c-1.96,0-2.95-.93-2.95-2.8s.98-2.8,2.95-2.8h2.87c1.63,0,2.49-.86,2.59-2.59v-19.54c-1.49,3.78-3.35,7.35-5.6,10.7-2.25,3.35-3.86,5.03-4.81,5.03-1.72,0-2.59-.98-2.59-2.95,0-.72.98-2.2,2.95-4.45ZM1986.42,1059.79h20.4c3.16,0,4.74,1.03,4.74,3.09,0,.38-.13.78-.4,1.19-.26.41-.68.97-1.26,1.69-3.93,4.5-7.23,7.93-9.91,10.27,1.53,1.39,2.3,2.47,2.3,3.23,0,1.63-.93,2.44-2.8,2.44-.96,0-2.11-.67-3.45-2.01-1.29-1.34-2.54-2.51-3.74-3.52-1.29-1.05-2.35-1.87-3.16-2.44-1.44-1.01-2.16-1.89-2.16-2.66,0-1.58.81-2.37,2.44-2.37,1.24,0,3.66,1.51,7.25,4.53,4.69-4.45,7.04-7.14,7.04-8.05,0-.24-.38-.36-1.15-.36h-16.16c-1.92,0-2.87-.84-2.87-2.51s.96-2.51,2.87-2.51ZM2008.69,1115.97c7.76-2.59,12.47-7.18,14.15-13.79h-10.63c-1.92,0-2.87-.84-2.87-2.51s.96-2.51,2.87-2.51h11.06l.07-1.08c.14-2.54.36-4.02.65-4.45.29-.53,1.03-.79,2.23-.79,1.87,0,2.8.79,2.8,2.37l-.29,3.73v.22h10.42c3.83,0,5.75,1.63,5.75,4.88,0,6.23-.65,11.04-1.94,14.44-1.34,3.59-4.84,5.39-10.49,5.39-3.78,0-5.68-1.01-5.68-3.02,0-1.82.89-2.73,2.66-2.73l3.45.14c2.39.05,3.93-.6,4.6-1.94.67-1.39,1.22-4.19,1.65-8.41l.14-2.01c.1-1.15-.57-1.72-2.01-1.72h-9.19c-1.29,8-5.82,13.84-13.58,17.53-2.83,1.34-4.84,2.01-6.03,2.01-1.68,0-2.51-1.05-2.51-3.16,0-1.15.91-2.01,2.73-2.59ZM2010.91,1092.05c0-.96.31-1.63.93-2.01.33-.19,1.87-.77,4.6-1.72,3.35-1.15,6.3-2.75,8.84-4.81-3.07-3.21-5.39-7.14-6.97-11.78-3.21,4.88-5.51,7.33-6.9,7.33-1.68,0-2.51-.89-2.51-2.66,0-.72.43-1.51,1.29-2.37,3.4-3.4,6.27-8.31,8.62-14.73.53-1.58,1.51-2.37,2.95-2.37,1.82,0,2.73.79,2.73,2.37,0,.57-.6,2.18-1.8,4.81h22.7c1.96,0,2.95.89,2.95,2.66s-.98,2.59-2.95,2.59h-4.17c-1.96,5.65-4.65,10.27-8.05,13.87,3.35,2.06,7.57,3.95,12.64,5.67,1.72.57,2.59,1.53,2.59,2.87,0,2.01-.93,3.02-2.8,3.02-1.15,0-3.59-.86-7.33-2.59-3.69-1.68-6.73-3.42-9.12-5.24-3.02,2.16-6.03,3.98-9.05,5.46-3.26,1.63-5.51,2.44-6.75,2.44-1.63,0-2.44-.93-2.44-2.8ZM2029.09,1080.2c3.06-3.3,5.1-6.92,6.11-10.85h-12.86c1.68,4.84,3.93,8.45,6.75,10.85Z"/>
      <path class="st0" d="M2090.79,1101.96c-.24-.24-.36-.69-.36-1.36,0-.41.38-.9,1.15-1.47,1.46-1.05,2.65-2.04,3.56-2.95,1.56-1.56,2.34-2.93,2.34-4.13,0-.65-.22-1.02-.65-1.11-.07-.02-.17-.04-.31-.04s-.31.02-.52.07c-.22.05-.4.07-.54.07-2.06,0-3.57-.48-4.53-1.44-.91-.91-1.36-2.27-1.36-4.1,0-1.65.49-2.98,1.47-3.99,1.15-1.12,2.74-1.69,4.78-1.69s3.47.53,4.53,1.58c1.25,1.25,1.87,3.28,1.87,6.11,0,3.66-1.35,7.12-4.06,10.38-2.4,2.95-4.44,4.42-6.14,4.42-.57,0-.98-.12-1.22-.36Z"/>
      <path class="st0" d="M2186.55,1119.2c0-2.06,1.46-3.09,4.38-3.09s4.72-.26,5.68-.79c1.63-.86,2.61-3.83,2.95-8.91.14-1.96.22-3.9.22-5.82,0-1.77-.91-2.66-2.73-2.66h-41.88l-1.29,1.36c-1.05,1.25-1.87,2.18-2.44,2.8-1.87,1.96-3.33,3.37-4.38,4.2-1.05.84-1.87,1.26-2.44,1.26-1.96,0-2.95-1.05-2.95-3.16,0-.96.67-2.04,2.01-3.23,8.76-7.47,15.8-17.48,21.12-30.03h-17.1c-2.2,0-3.3-.89-3.3-2.66s1.1-2.66,3.3-2.66h19.18l1.72-5.67c.67-2.16,1.8-3.23,3.38-3.23,1.05,0,1.84.22,2.37.65.53.43.79,1.13.79,2.08s-.62,3.02-1.87,6.18h15.16c3.88,0,5.82,1.61,5.82,4.81,0,1.82-.1,4.17-.29,7.04l-.07,1.58c2.06,0,3.6.42,4.63,1.26,1.03.84,1.54,2.12,1.54,3.84,0,1.63-.12,4.36-.36,8.19,4.12,0,6.18,2.01,6.18,6.03,0,9.1-.55,15.06-1.65,17.89-1.58,3.97-6.03,5.96-13.36,5.96-2.87,0-4.31-1.08-4.31-3.23ZM2148.76,1112.74c1.1-1.72,2.08-3.9,2.95-6.54.38-1.1.86-1.94,1.44-2.51s1.17-.86,1.8-.86c1.68,0,2.51.81,2.51,2.44,0,.86-.82,3.47-2.44,7.83-1.58,4.21-3.26,6.32-5.03,6.32-2.06,0-3.09-1.01-3.09-3.02,0-.43.62-1.65,1.87-3.66ZM2154.36,1057.14c1.05,0,2.13.69,3.23,2.08,1.44,1.72,2.16,2.97,2.16,3.74,0,1.68-1.03,2.51-3.09,2.51-1.15,0-2.35-.98-3.59-2.95-.43-.67-.8-1.28-1.11-1.83-.31-.55-.47-.95-.47-1.19,0-1.58.96-2.37,2.87-2.37ZM2193.88,1092.55c.1-1.05.14-2.13.14-3.23l.21-3.3c.1-.91-.6-1.37-2.08-1.37h-27.66c-1.15,2.06-2.87,4.69-5.17,7.9h34.55ZM2162.95,1103.4c.41-.38,1.07-.57,1.98-.57,1.53,0,2.85,1.75,3.95,5.24,1.24,3.07,1.87,5.13,1.87,6.18,0,1.72-.91,2.59-2.73,2.59-1.58,0-2.68-1.32-3.31-3.95l-2.3-7.4c-.05-1.01.13-1.7.54-2.08ZM2188.06,1079.26l.29-5.53c.05-.81-.16-1.45-.61-1.9-.46-.45-1.14-.68-2.05-.68h-14.51l-3.66,8.12h20.55ZM2176.63,1102.03c1.1,0,2.04.7,2.8,2.08,2.15,4.02,3.23,6.94,3.23,8.76,0,1.58-.89,2.37-2.66,2.37-1.44,0-2.4-.93-2.87-2.8l-2.44-6.82c-.29-.86-.43-1.44-.43-1.72,0-1.25.79-1.87,2.37-1.87ZM2186.15,1101.53c.41-.33,1.02-.5,1.83-.5,1.01,0,1.91.67,2.73,2.01,2.25,3.83,3.38,6.32,3.38,7.47,0,1.58-.89,2.37-2.66,2.37-1.1,0-1.92-.62-2.44-1.87l-3.16-7.25-.14-.79c-.1-.62.06-1.1.47-1.44Z"/>
    </g>
    <g>
      <path class="st0" d="M382.16,1225.63c.72-1.15,1.7-3.3,2.95-6.47.67-1.58,1.58-2.37,2.73-2.37,1.68,0,2.51.77,2.51,2.3,0,.38-.17,1.03-.5,1.94-2.59,6.94-4.69,10.42-6.32,10.42-1.77,0-2.66-.93-2.66-2.8,0-.57.43-1.58,1.29-3.02ZM383.81,1175.27c0-3.78,1.91-5.67,5.75-5.67h6.61c3.78,0,5.68,1.89,5.68,5.67v34.48c0,3.78-1.89,5.68-5.68,5.68h-6.61c-3.83,0-5.75-1.89-5.75-5.68v-34.48ZM396.74,1183.1v-6.25c0-1.39-.72-2.13-2.16-2.23h-3.52c-1.34,0-2.06.74-2.15,2.23v6.25h7.83ZM396.74,1196.39v-8.33h-7.83v8.33h7.83ZM391.06,1210.4h3.52c.67,0,1.2-.19,1.58-.57s.57-.93.57-1.65v-6.75h-7.83v6.75c0,1.39.72,2.13,2.15,2.23ZM397.17,1216.87c1.1,0,2.39,1.44,3.88,4.31,1.53,2.97,2.3,4.91,2.3,5.82,0,1.63-.89,2.44-2.66,2.44-1.2,0-2.08-.74-2.66-2.23l-2.8-6.82c-.29-.77-.43-1.29-.43-1.58,0-1.29.79-1.94,2.37-1.94ZM407.01,1229.65v-9.41h-2.66c-1.63,0-2.44-.74-2.44-2.23s.81-2.3,2.44-2.3h2.66v-11.64c0-2.06.44-3.54,1.33-4.45.89-.91,2.31-1.29,4.27-1.15h8.98v-3.66h-16.31c-1.68,0-2.51-.74-2.51-2.23s.84-2.3,2.51-2.3h8.55v-4.45h-5.17c-1.63,0-2.44-.72-2.44-2.16s.81-2.08,2.44-2.08h5.17v-4.09h-7.62c-1.72,0-2.59-.77-2.59-2.3s.86-2.23,2.59-2.23h7.62v-3.66c0-1.63.81-2.44,2.44-2.44s2.44.81,2.44,2.44v3.66h10.78v-3.66c0-1.63.89-2.44,2.66-2.44s2.59.81,2.59,2.44v3.66h7.9c1.72,0,2.59.77,2.59,2.3s-.86,2.23-2.59,2.23h-7.9v4.09h5.32c1.63,0,2.44.7,2.44,2.08s-.81,2.16-2.44,2.16h-5.32v4.45h9.2c1.72,0,2.59.77,2.59,2.3s-.86,2.23-2.59,2.23h-17.31v3.66h9.55c2.01,0,3.47.44,4.38,1.33.91.89,1.32,2.31,1.22,4.27v11.64h2.23c1.68,0,2.51.77,2.51,2.3s-.84,2.23-2.51,2.23h-2.23v5.6c0,2.3-.52,3.96-1.54,4.99-1.03,1.03-2.67,1.47-4.92,1.33h-4.31c-1.82,0-2.73-.84-2.73-2.51s.91-2.59,2.73-2.59h3.16c1.53,0,2.35-.84,2.44-2.51v-4.31h-24.43v9.41c0,.96-.2,1.66-.61,2.12-.41.45-1.07.68-1.98.68-1.72,0-2.59-.93-2.59-2.8ZM421.6,1207.1v-4.24h-7.47c-1.2,0-1.84.65-1.94,1.94v2.3h9.41ZM421.6,1215.72v-4.6h-9.41v4.6h9.41ZM429.5,1181.59v-4.09h-10.78v4.09h10.78ZM429.5,1190.29v-4.45h-10.78v4.45h10.78ZM436.61,1207.1v-2.23c0-1.29-.65-1.96-1.94-2.01h-8.05v4.24h9.99ZM436.61,1215.72v-4.6h-9.99v4.6h9.99Z"/>
      <path class="st0" d="M466.06,1226.28c4.12-.67,8.45-1.8,13-3.38,1.44-.48,2.44-.72,3.02-.72,2.01,0,3.02.96,3.02,2.87,0,.67-.74,1.38-2.23,2.12-1.49.74-3.78,1.59-6.9,2.55-5.89,1.82-10.13,2.73-12.71,2.73-1.96,0-2.95-.98-2.95-2.95,0-1.49,1.91-2.56,5.75-3.23ZM462.97,1175.49c-.34-4.36,1.7-6.42,6.11-6.18h48.06c2.25,0,3.89.49,4.92,1.47,1.03.98,1.45,2.55,1.26,4.71v4.53c.33,4.36-1.72,6.39-6.18,6.11h-48.06c-2.25,0-3.88-.48-4.89-1.44-1.01-.96-1.41-2.51-1.22-4.67v-4.53ZM466.2,1214.42v-17.82c-.34-4.45,1.8-6.68,6.39-6.68h40.73c4.88,0,7.11,2.23,6.68,6.68v17.82c.38,4.45-1.75,6.68-6.39,6.68h-40.73c-4.88,0-7.11-2.23-6.68-6.68ZM470.58,1181.52h10.42v-7.62h-10.42c-1.34,0-2.06.74-2.16,2.23v3.23c0,1.34.72,2.06,2.16,2.16ZM514.12,1198.83v-1.8c0-1.77-.93-2.61-2.8-2.51h-36.42c-.96,0-1.66.2-2.12.61-.46.41-.66,1.04-.61,1.9v1.8h41.95ZM514.12,1207.6v-4.45h-41.95v4.45h41.95ZM474.9,1216.51h36.42c1.92,0,2.85-.86,2.8-2.59v-2.01h-41.95v2.01c0,1.77.91,2.64,2.73,2.59ZM499.1,1181.52v-7.62h-12.79v7.62h12.79ZM504.56,1222.25c.62,0,1.46.17,2.51.5,4.21,1.39,9.29,2.59,15.23,3.59,1.24.24,2.17.57,2.77,1.01.6.43.9,1.01.9,1.72,0,2.16-1.03,3.23-3.09,3.23-2.92,0-7.28-.91-13.07-2.73-5.94-1.87-8.91-3.4-8.91-4.6,0-1.82,1.22-2.73,3.66-2.73ZM515.63,1181.52c1.44,0,2.16-.72,2.16-2.16v-3.23c0-1.44-.72-2.18-2.16-2.23h-11.21v7.62h11.21Z"/>
      <path class="st0" d="M567.7,1224.88c-.62-.65-.93-1.42-.93-2.34,0-.33.12-.81.36-1.44l18.32-43.25c.43-.96,1.01-1.7,1.72-2.23.72-.53,1.56-.79,2.51-.79h.72c.96,0,1.8.26,2.51.79.72.53,1.29,1.27,1.72,2.23l18.32,43.25c.24.62.36,1.1.36,1.44,0,.91-.31,1.69-.93,2.34s-1.41.97-2.37.97c-.72,0-1.35-.18-1.9-.54-.55-.36-.97-.87-1.26-1.55l-4.67-11.13h-24.28l-4.67,11.13c-.29.67-.71,1.19-1.26,1.55-.55.36-1.19.54-1.9.54-.96,0-1.75-.32-2.37-.97ZM599.67,1206.52l-9.05-21.77c-.14-.33-.34-.5-.57-.5s-.43.17-.57.5l-9.05,21.77h19.25Z"/>
      <path class="st0" d="M623.41,1241.36c-.65-.67-.97-1.46-.97-2.37v-47.34c0-.91.32-1.69.97-2.34s1.42-.97,2.33-.97,1.7.32,2.37.97c.67.65,1.01,1.43,1.01,2.34v1.72c3.45-3.59,7.52-5.39,12.21-5.39,3.11,0,5.94.74,8.48,2.23,2.78,1.53,4.97,3.78,6.57,6.75,1.6,2.97,2.41,6.35,2.41,10.13s-.81,7.3-2.44,10.13c-1.63,2.87-3.77,5.09-6.43,6.64-2.66,1.56-5.52,2.34-8.58,2.34-4.69,0-8.77-1.8-12.21-5.39v18.18c0,.96-.32,1.76-.97,2.41-.65.65-1.45.97-2.41.97s-1.69-.34-2.33-1.01ZM634.33,1218.52c1.94.96,3.96,1.44,6.07,1.44,3.64,0,6.5-1.14,8.58-3.41,2.08-2.27,3.12-5.42,3.12-9.45s-1.04-7.17-3.12-9.45c-2.08-2.27-4.95-3.41-8.58-3.41-2.11,0-4.13.48-6.07,1.44-1.94.96-3.68,2.25-5.21,3.88v15.09c1.53,1.63,3.27,2.92,5.21,3.88Z"/>
      <path class="st0" d="M668.74,1241.36c-.65-.67-.97-1.46-.97-2.37v-47.34c0-.91.32-1.69.97-2.34s1.42-.97,2.33-.97,1.7.32,2.37.97c.67.65,1.01,1.43,1.01,2.34v1.72c3.45-3.59,7.52-5.39,12.21-5.39,3.11,0,5.94.74,8.48,2.23,2.78,1.53,4.97,3.78,6.57,6.75,1.6,2.97,2.41,6.35,2.41,10.13s-.81,7.3-2.44,10.13c-1.63,2.87-3.77,5.09-6.43,6.64-2.66,1.56-5.52,2.34-8.58,2.34-4.69,0-8.77-1.8-12.21-5.39v18.18c0,.96-.32,1.76-.97,2.41-.65.65-1.45.97-2.41.97s-1.69-.34-2.33-1.01ZM679.66,1218.52c1.94.96,3.96,1.44,6.07,1.44,3.64,0,6.5-1.14,8.58-3.41,2.08-2.27,3.12-5.42,3.12-9.45s-1.04-7.17-3.12-9.45c-2.08-2.27-4.95-3.41-8.58-3.41-2.11,0-4.13.48-6.07,1.44-1.94.96-3.68,2.25-5.21,3.88v15.09c1.53,1.63,3.27,2.92,5.21,3.88Z"/>
      <path class="st0" d="M714.07,1224.88c-.65-.65-.97-1.42-.97-2.34v-46.62c0-.91.32-1.7.97-2.37.65-.67,1.42-1.01,2.33-1.01.96,0,1.76.32,2.41.97.65.65.97,1.45.97,2.41v46.62c0,.91-.34,1.69-1.01,2.34-.67.65-1.46.97-2.37.97s-1.69-.32-2.33-.97Z"/>
      <path class="st0" d="M733.68,1221.18c-3.28-3.35-4.92-8.05-4.92-14.08,0-3.26.62-6.39,1.87-9.41,1.29-3.02,3.26-5.39,5.89-7.11,2.63-1.72,5.79-2.59,9.48-2.59s6.63.81,9.27,2.44c2.49,1.63,4.43,3.82,5.82,6.57,1.39,2.75,2.08,5.81,2.08,9.16,0,.91-.31,1.69-.93,2.33-.62.65-1.44.97-2.44.97h-24.28c.43,3.4,1.71,6,3.84,7.79,2.13,1.8,5.02,2.69,8.66,2.69,1.92,0,3.63-.18,5.14-.54,1.51-.36,3.03-.92,4.56-1.69.33-.19.77-.29,1.29-.29.77,0,1.45.28,2.05.83.6.55.9,1.23.9,2.05,0,1.1-.65,2.01-1.94,2.73-2.01,1.1-3.93,1.9-5.75,2.41-1.82.5-4.1.75-6.82.75-5.89,0-10.48-1.68-13.76-5.03ZM755.63,1204.01c.62,0,.91-.31.86-.93-.19-1.91-.77-3.52-1.72-4.81-1.05-1.53-2.36-2.68-3.92-3.45-1.56-.77-3.17-1.15-4.85-1.15-1.53,0-3.14.36-4.81,1.08-1.68.81-3.01,2.02-3.99,3.63-.98,1.61-1.54,3.48-1.69,5.64h20.12Z"/>
      <path class="st0" d="M799.73,1231.52c-.53-.48-.79-1.03-.79-1.65s.13-1.23.4-1.83c.26-.6.44-.99.54-1.19,2.11-4.93,3.28-10.01,3.52-15.23.19-4.69.29-8.88.29-12.57,0-2.25.51-3.89,1.54-4.92s2.62-1.54,4.78-1.54h49.71c1.01,0,1.76.23,2.26.68.5.46.75,1.11.75,1.98,0,1.72-1.01,2.59-3.02,2.59h-48.2c-1.58,0-2.37.79-2.37,2.37v5.82c0,7.14-.72,13.31-2.16,18.53-.77,2.68-1.56,4.63-2.37,5.86-.81,1.22-1.7,1.83-2.66,1.83s-1.7-.24-2.23-.72ZM805.05,1172.33h23.78v-2.51c0-2.01,1.03-3.02,3.09-3.02s3.02,1.01,3.02,3.02v2.51h23.64c2.15,0,3.23.89,3.23,2.66s-1.08,2.66-3.23,2.66h-53.52c-2.2,0-3.3-.89-3.3-2.66s1.1-2.66,3.3-2.66ZM811.37,1225.63h21.91v-6.11h-15.01c-1.77,0-2.66-.81-2.66-2.44,0-.81.22-1.42.65-1.83.43-.41,1.1-.61,2.01-.61h15.01v-5.39h-13.87c-3.59,5.08-6.25,7.62-7.97,7.62-1.53,0-2.3-.91-2.3-2.73,0-.77.57-1.72,1.72-2.87,1.82-1.82,3.38-3.56,4.67-5.21,1.29-1.65,2.42-3.41,3.38-5.28.81-1.58,1.7-2.37,2.66-2.37s1.58.17,2.01.5c.43.34.65.91.65,1.72,0,.53-.5,1.72-1.51,3.59h10.56v-2.37c0-.96.25-1.7.75-2.23s1.19-.79,2.05-.79c.81,0,1.46.26,1.94.79.48.53.72,1.27.72,2.23v2.37h18.32c1.01,0,1.72.2,2.16.61.43.41.65,1.04.65,1.9s-.21,1.5-.65,1.9c-.43.41-1.15.61-2.16.61h-18.32v5.39h14.66c.96,0,1.65.2,2.08.61.43.41.65,1.02.65,1.83s-.22,1.43-.65,1.83c-.43.41-1.13.61-2.08.61h-14.66v6.11h20.98c1.01,0,1.72.2,2.16.61.43.41.65,1.04.65,1.9s-.22,1.5-.65,1.9c-.43.41-1.15.61-2.16.61h-48.35c-1.82,0-2.73-.84-2.73-2.51s.91-2.51,2.73-2.51ZM809.36,1189.57c0-.67.27-1.23.83-1.69.55-.45,1.35-.71,2.41-.75,4.12-.29,9.1-.96,14.94-2.01l1.51-.29c-.34-.1-1.1-.19-2.3-.29l-2.16-.29c-4.84-.81-7.83-1.29-8.98-1.44-.81-.1-1.5-.38-2.05-.86-.55-.48-.83-1.03-.83-1.65,0-.67.23-1.19.68-1.55.45-.36,1.23-.54,2.33-.54.67,0,2.66.37,5.96,1.11,3.31.74,7.49,1.81,12.57,3.2,2.01-.53,4.2-1.15,6.57-1.87,2.37-.72,4.23-1.34,5.57-1.87.62-.24,1.12-.42,1.51-.54.38-.12.65-.2.79-.25.19-.1.53-.14,1.01-.14s.92.1,1.33.29c.41.19.71.46.9.79.14.29.22.62.22,1.01,0,.77-.41,1.36-1.22,1.8-.67.38-1.83.78-3.48,1.19-1.65.41-3.25.73-4.78.97l-1.72.29-1.29.21-1.08.14,5.6.86c2.68.34,4.29.57,4.81.72.86.19,1.58.34,2.16.43.38.1.77.18,1.15.25.38.07.77.18,1.15.32.77.29,1.35.65,1.76,1.08.41.43.61.91.61,1.44,0,.77-.24,1.35-.72,1.76-.48.41-1.13.61-1.94.61-.53,0-.96-.05-1.29-.14l-4.17-1.15-2.37-.65c-6.8-1.82-10.51-2.78-11.14-2.87-3.11.91-6.2,1.71-9.27,2.41-3.07.69-6.87,1.4-11.42,2.12-.67.1-1.15.14-1.44.14-1.49,0-2.37-.55-2.66-1.65-.05-.14-.07-.36-.07-.65Z"/>
      <path class="st0" d="M879.9,1208.03c0-2.39.54-4.14,1.62-5.24s2.79-1.58,5.14-1.44h13.58c2.39,0,4.13.53,5.21,1.58,1.08,1.05,1.57,2.75,1.47,5.1v15.73c0,2.39-.53,4.14-1.58,5.25-1.05,1.1-2.75,1.6-5.1,1.51h-13.58c-2.4,0-4.13-.54-5.21-1.62-1.08-1.08-1.59-2.79-1.55-5.14v-15.73ZM886.15,1224.48c.43.43,1.32.65,2.66.65h9.27c1.29,0,2.16-.22,2.59-.65.43-.43.65-1.32.65-2.66v-11.85c0-1.29-.23-2.17-.68-2.62-.46-.45-1.31-.68-2.55-.68h-9.27c-1.34,0-2.23.21-2.66.65-.43.43-.65,1.32-.65,2.66v11.85c0,1.34.22,2.23.65,2.66ZM889.99,1193.7c-1.17-1.12-1.66-2.93-1.47-5.42v-11.06c-.34-4.93,2.04-7.3,7.11-7.11h28.66c2.63,0,4.54.56,5.71,1.69,1.17,1.13,1.66,2.93,1.47,5.42v11.06c.38,5.03-2.01,7.4-7.18,7.11h-28.66c-2.59,0-4.47-.56-5.64-1.69ZM894.98,1189.39c.43.46,1.36.68,2.8.68h24.43c1.39,0,2.31-.22,2.77-.65.45-.43.68-1.36.68-2.8v-7.76c0-1.39-.22-2.3-.65-2.73-.43-.43-1.34-.65-2.73-.65h-24.5c-1.44,0-2.38.22-2.84.65-.46.43-.66,1.34-.61,2.73v7.76c0,1.39.22,2.31.65,2.77ZM913.09,1208.03c0-2.39.53-4.14,1.58-5.24,1.05-1.1,2.75-1.58,5.1-1.44h13.58c2.39,0,4.13.53,5.21,1.58,1.08,1.05,1.59,2.75,1.54,5.1v15.73c0,2.39-.54,4.14-1.62,5.25-1.08,1.1-2.79,1.6-5.14,1.51h-13.65c-2.4,0-4.14-.54-5.24-1.62-1.1-1.08-1.56-2.79-1.36-5.14v-15.73ZM919.34,1224.48c.43.43,1.32.65,2.66.65h9.19c1.34,0,2.23-.22,2.66-.65.43-.43.65-1.32.65-2.66v-11.85c0-1.34-.22-2.23-.65-2.66-.43-.43-1.32-.65-2.66-.65h-9.19c-1.34,0-2.23.21-2.66.65-.43.43-.65,1.32-.65,2.66v11.85c0,1.34.21,2.23.65,2.66Z"/>
      <path class="st0" d="M958.41,1184.47c0-1.82.45-3.21,1.36-4.17.91-.96,2.25-1.44,4.02-1.44h3.66c.38-2.16.84-5.2,1.36-9.12.1-.86.41-1.51.93-1.94.53-.43,1.22-.65,2.08-.65,2.39,0,3.42,1.22,3.09,3.66-.38,2.68-1.01,5.36-1.87,8.05h5.46c3.64,0,5.46,1.87,5.46,5.6l.07,40.88c0,3.69-1.84,5.53-5.53,5.53h-14.58c-1.82,0-3.2-.47-4.13-1.4-.93-.93-1.4-2.31-1.4-4.13v-40.88ZM978.17,1201.06v-14.37c0-1.58-.79-2.37-2.37-2.37h-9.12c-1.58,0-2.37.79-2.37,2.37v14.37h13.86ZM966.67,1225.42h9.12c1.58,0,2.37-.79,2.37-2.37v-16.67h-13.86v16.67c0,1.58.79,2.37,2.37,2.37ZM999.5,1231.23c-.57-.48-.86-1.22-.86-2.23,0-1.96,1.1-2.95,3.3-2.95,2.97,0,5.05-.06,6.25-.18s2.11-.39,2.73-.83c.62-.43,1.12-1.2,1.51-2.3.67-1.96,1.2-6.75,1.58-14.37.38-7.62.57-14.85.57-21.7,0-1.82-1.05-2.73-3.16-2.73h-16.02c-.81,2.54-2.27,5.46-4.38,8.76-.67,1.1-1.51,1.65-2.51,1.65-.48,0-.98-.14-1.51-.43-.96-.53-1.44-1.27-1.44-2.23,0-.62.19-1.27.57-1.94,2.01-3.78,3.5-6.97,4.45-9.55,1.2-3.16,2.32-6.7,3.38-10.63.24-.81.61-1.45,1.11-1.9.5-.45,1.11-.68,1.83-.68.19,0,.53.05,1.01.14,1.44.34,2.16,1.2,2.16,2.59,0,.48-.07,1.01-.22,1.58-.34,1.39-.74,2.77-1.22,4.13-.48,1.37-.93,2.43-1.36,3.2h17.24c4.21,0,6.32,1.77,6.32,5.32,0,9-.24,17.68-.72,26.04-.48,8.36-1.29,13.95-2.44,16.77-.86,2.01-2.18,3.4-3.95,4.17-1.77.76-4.45,1.15-8.05,1.15-1.44,0-2.54-.03-3.3-.07-1.34-.05-2.3-.31-2.87-.79ZM992.97,1197.36c.48-.45,1.1-.68,1.87-.68s1.58.43,2.44,1.29c.86.86,1.96,2.28,3.3,4.24,2.78,4.17,4.17,6.92,4.17,8.26,0,.81-.25,1.46-.75,1.94-.5.48-1.21.72-2.12.72-.77,0-1.44-.27-2.01-.83s-1.15-1.38-1.72-2.48c-.91-1.63-2.25-3.81-4.02-6.54l-1.01-1.58c-.24-.33-.44-.74-.61-1.22-.17-.48-.25-.89-.25-1.22,0-.81.24-1.45.72-1.9Z"/>
      <path class="st0" d="M1035.63,1229.15c0-.24.08-.67.25-1.29.17-.62.3-1.1.4-1.44,1.01-3.83,1.7-8.17,2.08-13,.38-4.84.6-10.94.65-18.32l.07-10.78c0-3.83,1.87-5.75,5.6-5.75h19.61c3.4,0,5.1,1.65,5.1,4.96v3.66c0,3.31-1.7,4.96-5.1,4.96h-19.97c-.19,5.36-.36,9.39-.5,12.07l2.59-5.03,1.87-4.17c.38-.81.75-1.41,1.11-1.8.36-.38.8-.57,1.33-.57.81,0,1.41.14,1.8.43s.57.81.57,1.58c0,.91-.53,2.25-1.58,4.02h5.82l1.65-3.74c.67-1.53,1.58-2.3,2.73-2.3,1.58,0,2.37.72,2.37,2.16,0,.86-.65,2.11-1.94,3.74h5.32c1.72,0,2.59.72,2.59,2.16s-.86,2.08-2.59,2.08h-5.32v4.96h4.67c1.58,0,2.37.67,2.37,2.01s-.79,2.01-2.37,2.01h-4.67v5.03h4.67c1.58,0,2.37.65,2.37,1.94s-.79,2.01-2.37,2.01h-4.67v5.96h4.53c1.48,0,2.23.69,2.23,2.08,0,1.48-.65,2.23-1.94,2.23h-14.65c-3.35,0-5.03-1.68-5.03-5.03v-19.76c-1.34,1.96-2.27,2.95-2.8,2.95-.34,0-.62-.07-.86-.21-.43,8.05-1.08,13.89-1.94,17.53-.86,3.64-1.96,5.46-3.3,5.46-1.82,0-2.73-.93-2.73-2.8ZM1039.44,1170.03h28.45c.96,0,1.69.22,2.19.65.5.43.75,1.05.75,1.87,0,1.72-.98,2.59-2.95,2.59h-28.45c-2.01,0-3.02-.86-3.02-2.59s1.01-2.51,3.02-2.51ZM1062.79,1187.7c1.01,0,1.51-.55,1.51-1.65v-1.51c0-.91-.5-1.39-1.51-1.44h-17.03c-1.01,0-1.51.48-1.51,1.44v3.16h18.53ZM1057.69,1207.74v-4.96h-5.03c-.43,0-.69.29-.79.86v4.1h5.82ZM1057.69,1216.79v-5.03h-5.82v5.03h5.82ZM1053.38,1226.71h4.31v-5.96h-5.82v4.45c0,1.01.5,1.51,1.51,1.51ZM1070.69,1226.46c.33-.26.79-.55,1.36-.86s1.01-.56,1.29-.75c1.05-.62,1.9-1.21,2.55-1.76.65-.55,1.52-1.4,2.62-2.55,1.01-1.01,1.8-1.51,2.37-1.51,1.82,0,2.73.86,2.73,2.59,0,.81-.32,1.66-.97,2.55-.65.89-1.81,1.95-3.48,3.2-3.5,2.59-6.08,3.69-7.76,3.3-.43-.05-.81-.34-1.15-.86-.34-.53-.5-1.05-.5-1.58,0-.19.05-.43.14-.72.19-.43.45-.78.79-1.04ZM1074.64,1170.03h23.49c1.01,0,1.78.22,2.33.65.55.43.83,1.05.83,1.87,0,1.72-1.05,2.59-3.16,2.59h-10.06l-1.65,6.54h6.9c3.64,0,5.46,1.8,5.46,5.39v25.79c0,3.54-1.82,5.32-5.46,5.32h-14.8c-3.5,0-5.24-1.75-5.24-5.24v-25.93c0-3.54,1.75-5.32,5.24-5.32h2.87l.93-6.54h-7.69c-2.01,0-3.02-.86-3.02-2.59s1.01-2.51,3.02-2.51ZM1093.68,1191.94v-3.45c0-1.29-.65-1.94-1.94-1.94h-11.49c-1.34,0-2.01.65-2.01,1.94v3.45h15.45ZM1093.68,1202.43v-5.6h-15.45v5.6h15.45ZM1080.24,1213.35h11.49c1.29,0,1.94-.69,1.94-2.08v-3.95h-15.45v4.02c0,1.34.67,2.01,2.01,2.01ZM1090.44,1218.95c.77,0,2.11.93,4.02,2.8,1.53,1.53,3.16,2.87,4.88,4.02,1.39.96,2.08,1.91,2.08,2.87,0,2.06-.96,3.09-2.87,3.09-1.29,0-3.42-1.36-6.39-4.1-2.92-2.68-4.38-4.69-4.38-6.03,0-1.77.89-2.66,2.66-2.66Z"/>
      <path class="st0" d="M1115.3,1210.76c0-1.48,1.41-2.51,4.24-3.09,9.53-1.91,17.26-4.21,23.2-6.9-4.07-2.82-7.45-6.06-10.13-9.7-7.09,6.42-11.73,9.63-13.94,9.63-1.77,0-2.66-.91-2.66-2.73,0-.91,1.41-2.23,4.24-3.95,6.18-3.74,11.14-8.17,14.87-13.29.81-1.1,1.7-1.65,2.66-1.65,1.05,0,1.84.19,2.37.57.53.38.79.91.79,1.58,0,.72-.74,1.92-2.23,3.59h27.01c3.02,0,4.53.98,4.53,2.95,0,.53-.42,1.22-1.26,2.08-.84.86-2.14,2.01-3.92,3.45-2.87,2.3-6.68,4.79-11.42,7.47,6.32,2.59,14.25,4.62,23.78,6.11,2.25.34,3.38,1.41,3.38,3.23,0,2.01-1.03,3.02-3.09,3.02-1.72,0-5.96-.93-12.72-2.8-6.8-1.87-12.52-4.02-17.17-6.47-5.22,2.49-11.09,4.74-17.6,6.75-6.75,2.06-10.73,3.09-11.93,3.09-2.01,0-3.02-.98-3.02-2.95ZM1116.52,1180.87c0-2.68.6-4.6,1.8-5.75,1.34-1.24,3.28-1.84,5.82-1.8h20.19v-3.38c0-2.06,1.1-3.09,3.3-3.09s3.3,1.03,3.3,3.09v3.38h20.98c2.63,0,4.57.6,5.82,1.8,1.2,1.15,1.8,2.97,1.8,5.46v5.1c0,2.44-1.03,3.66-3.09,3.66s-3.02-1.22-3.02-3.66v-4.31c0-1.87-.93-2.8-2.8-2.8h-45.19c-1.82,0-2.71.93-2.66,2.8v4.31c0,2.44-1.05,3.66-3.16,3.66s-3.09-1.22-3.09-3.66v-4.81ZM1124.2,1217.8c0-1.96.51-3.45,1.55-4.45,1.03-1.01,2.5-1.51,4.42-1.51h35.7c1.96,0,3.45.5,4.45,1.51,1.01,1.01,1.51,2.49,1.51,4.45v7.54c0,1.96-.5,3.45-1.51,4.45s-2.49,1.51-4.45,1.51h-35.7c-1.92,0-3.39-.5-4.42-1.51-1.03-1.01-1.55-2.49-1.55-4.45v-7.54ZM1130.78,1225.52c.41.41,1.07.61,1.98.61h30.53c.86,0,1.51-.2,1.94-.61s.65-1.06.65-1.97v-3.95c0-1.72-.86-2.59-2.59-2.59h-30.53c-1.72,0-2.59.86-2.59,2.59v3.95c0,.91.2,1.57.61,1.97ZM1148.34,1198.26c7.95-3.88,11.93-6.51,11.93-7.9,0-.43-.24-.65-.72-.65h-22.05c2.59,3.16,6.2,6.01,10.85,8.55Z"/>
      <path class="st0" d="M1223.26,1211.91c-.24-.24-.36-.69-.36-1.36,0-.41.38-.9,1.15-1.47,1.46-1.05,2.65-2.04,3.56-2.95,1.56-1.56,2.34-2.93,2.34-4.13,0-.65-.22-1.02-.65-1.11-.07-.02-.17-.04-.31-.04s-.31.02-.52.07c-.22.05-.4.07-.54.07-2.06,0-3.57-.48-4.53-1.44-.91-.91-1.36-2.27-1.36-4.1,0-1.65.49-2.98,1.47-3.99,1.15-1.12,2.74-1.69,4.78-1.69s3.47.53,4.53,1.58c1.25,1.25,1.87,3.28,1.87,6.11,0,3.66-1.35,7.12-4.06,10.38-2.4,2.95-4.44,4.42-6.14,4.42-.57,0-.98-.12-1.22-.36Z"/>
      <path class="st0" d="M1277.07,1203.36l6.9-2.08v-15.01h-6.47c-2.15,0-3.23-.93-3.23-2.8s1.08-2.8,3.23-2.8h6.47v-10.85c0-2.01.96-3.02,2.87-3.02s2.8,1.01,2.8,3.02v10.85h5.46c2.16,0,3.23.93,3.23,2.8s-1.08,2.8-3.23,2.8h-5.46v13.07l.65-.21c.86-.24,1.64-.5,2.33-.79s1.16-.45,1.4-.5c1.68,0,2.51.91,2.51,2.73,0,.96-.55,1.72-1.65,2.3l-5.24,2.16v19.76c.34,5.03-2.08,7.42-7.25,7.18h-3.52c-1.96,0-2.95-1.01-2.95-3.02s.98-3.02,2.95-3.02h2.37c1.72,0,2.63-.91,2.73-2.73v-16.02l-2.3.86c-2.73,1.01-4.26,1.51-4.6,1.51-1.96,0-2.95-.96-2.95-2.87,0-1.63.98-2.73,2.95-3.31ZM1291.94,1228.72c0-1.01.77-2.06,2.3-3.16,4.88-3.64,7.52-8.91,7.9-15.8.1-1.72.98-2.59,2.66-2.59,1.77,0,2.66.81,2.66,2.44,0,1.53-.34,3.57-1.01,6.11,1.77,3.93,4.67,6.59,8.69,7.97v-19.47h-14.87c-1.87,0-2.8-.81-2.8-2.44,0-.86.23-1.5.68-1.9.45-.41,1.16-.61,2.12-.61h36.21c1.91,0,2.87.84,2.87,2.51s-.96,2.44-2.87,2.44h-15.73v6.9h11.78c1.82,0,2.73.81,2.73,2.44s-.91,2.51-2.73,2.51h-11.78v8.48l1.36.14c1.58.19,4.48.29,8.69.29h4.31l1.94-.07c1.82-.1,2.73.84,2.73,2.8s-1.41,2.87-4.24,2.87l-6.61-.14c-7.42-.14-13-.86-16.74-2.15-2.97-1.01-5.51-3.28-7.62-6.83-1.1,2.35-2.73,4.6-4.88,6.75-2.2,2.2-3.9,3.3-5.1,3.3-1.77,0-2.66-.93-2.66-2.8ZM1301.63,1175.27c0-3.73,1.87-5.6,5.6-5.6h21.34c2.01,0,3.48.46,4.42,1.36.93.91,1.35,2.37,1.26,4.38v13.94c0,2.06-.46,3.55-1.36,4.45s-2.35,1.32-4.31,1.22h-21.34c-3.74,0-5.6-1.87-5.6-5.6v-14.15ZM1328.64,1179.87v-3.3c0-1.39-.72-2.11-2.15-2.16h-17.17c-.67,0-1.19.18-1.54.54s-.54.88-.54,1.54v3.38h21.41ZM1309.32,1190.29h17.17c1.44,0,2.15-.72,2.15-2.16v-3.66h-21.41v3.74c0,1.29.69,1.99,2.08,2.08Z"/>
      <path class="st0" d="M1353.96,1199.34c.26-.57.71-1.34,1.33-2.3,4.69-7.23,8.52-15.9,11.49-26.01.86-2.78,2.06-4.17,3.59-4.17,2.2,0,3.3.89,3.3,2.66,0,1.39-1.84,6.23-5.53,14.51v44.97c0,2.3-.93,3.45-2.8,3.45s-2.87-1.15-2.87-3.45v-33.33c-3.07,5.8-5.2,8.69-6.39,8.69-1.68,0-2.51-1.17-2.51-3.52,0-.43.13-.93.39-1.51ZM1370.74,1207.02c0-1.96,1.2-2.95,3.59-2.95h7.83v-16.74h-6.32c-2.3,0-3.45-.98-3.45-2.95s1.15-2.95,3.45-2.95h6.32v-10.63c0-2.35.98-3.52,2.95-3.52s2.95,1.17,2.95,3.52v10.63h12.79v-10.49c0-2.44,1.01-3.66,3.02-3.66s3.02,1.22,3.02,3.66v10.49h7.4c2.35,0,3.52.98,3.52,2.95s-1.17,2.95-3.52,2.95h-7.4v16.74h8.76c2.39,0,3.59.98,3.59,2.95s-1.2,2.95-3.59,2.95h-41.31c-2.4,0-3.59-.98-3.59-2.95ZM1373.32,1225.06c2.63-1.87,5.36-4.98,8.19-9.34,1.15-1.77,2.32-2.66,3.52-2.66,1.92,0,2.87.86,2.87,2.59,0,1.39-1.87,4.38-5.6,8.98-3.74,4.6-6.49,6.9-8.26,6.9-2.06,0-3.09-1.03-3.09-3.09,0-1.1.79-2.23,2.37-3.38ZM1400.84,1204.08v-16.74h-12.79v16.74h12.79ZM1403.21,1213.13c1.25,0,2.44.89,3.59,2.66.96,1.44,2.35,3.07,4.17,4.88,1.58,1.58,3.18,2.92,4.81,4.02,1.91,1.34,2.87,2.56,2.87,3.66,0,2.2-1.01,3.3-3.02,3.3-1.77,0-4.79-2.23-9.05-6.68-4.26-4.55-6.39-7.64-6.39-9.27,0-1.72,1.01-2.59,3.02-2.59Z"/>
      <path class="st0" d="M1437.9,1227c-1.29-1.29-1.94-3.23-1.94-5.82v-15.3c0-2.44.98-3.66,2.95-3.66s3.02,1.2,3.02,3.59v14.01c0,2.11,1.08,3.16,3.23,3.16h17.46v-25.58h-16.38c-2.59,0-4.47-.55-5.64-1.65-1.17-1.1-1.66-2.9-1.47-5.39v-14.08c0-2.39,1.01-3.59,3.02-3.59.96,0,1.69.29,2.19.86s.75,1.41.75,2.51v12.28c0,2.11,1.03,3.16,3.09,3.16h14.44v-20.69c0-2.63,1.03-3.95,3.09-3.95s3.02,1.32,3.02,3.95v20.69h14.94c2.11,0,3.16-1.05,3.16-3.16v-12.21c0-2.3.98-3.45,2.95-3.45s3.02,1.22,3.02,3.66v14.01c.34,5.03-2.04,7.38-7.11,7.04h-16.95v25.58h18.03c2.01,0,3.06-1.05,3.16-3.16v-14.01c0-2.44,1.01-3.66,3.02-3.66s2.95,1.25,2.95,3.74v15.3c0,2.59-.62,4.53-1.87,5.82-1.29,1.29-3.23,1.91-5.82,1.87h-44.54c-2.59,0-4.5-.62-5.75-1.87Z"/>
      <path class="st0" d="M1522.38,1228.72c-1.87-.96-2.85-2.8-2.95-5.53v-29.81c-.19-2.73.35-4.73,1.62-6,1.27-1.27,3.29-1.86,6.07-1.76h17.82l5.39-5.75c.38-.48.57-.81.57-1.01,0-.57-.34-.86-1.01-.86h-20.26c-7.38,8.29-12.21,12.43-14.51,12.43-1.63,0-2.44-.93-2.44-2.8,0-1.15.65-2.16,1.94-3.02,6.03-4.21,11.04-9.48,15.01-15.8.72-1.15,1.77-1.72,3.16-1.72,2.16,0,3.23.67,3.23,2.01,0,.67-.69,1.92-2.08,3.74h20.76c3.54,0,5.32,1.13,5.32,3.38,0,.48-.74,1.53-2.23,3.16-1.49,1.63-3.64,3.71-6.47,6.25h14.15c2.59,0,4.47.57,5.64,1.72,1.17,1.15,1.66,2.95,1.47,5.39v9.55c.34,5.03-2.04,7.4-7.11,7.11h-40.37v11.21c0,1.58.84,2.71,2.51,3.38.62.24,2.01.4,4.17.47,2.15.07,5.51.11,10.06.11h13c6.37,0,10.3-.12,11.78-.36,1.34-.19,2.44-.92,3.31-2.19.86-1.27,1.41-2.88,1.65-4.85.24-1.87,1.25-2.8,3.02-2.8,2.06,0,3.09.86,3.09,2.59,0,2.44-.57,5.05-1.72,7.83-.57,1.44-1.51,2.56-2.8,3.38-1.29.81-3.11,1.37-5.46,1.65l-6.32.36-23.13.07c-8.57,0-13.86-.5-15.88-1.51ZM1543.14,1204.15v-13.29h-15.01c-.91,0-1.63.25-2.15.75-.53.5-.81,1.23-.86,2.19v10.34h18.03ZM1563.68,1204.15c1.96,0,2.99-1.03,3.09-3.09v-7.04c0-.96-.26-1.71-.79-2.26-.53-.55-1.29-.85-2.3-.9h-15.16v13.29h15.16Z"/>
      <path class="st0" d="M1593.99,1184.47c0-1.82.45-3.21,1.36-4.17.91-.96,2.25-1.44,4.02-1.44h3.66c.38-2.16.84-5.2,1.36-9.12.1-.86.41-1.51.93-1.94.53-.43,1.22-.65,2.08-.65,2.39,0,3.42,1.22,3.09,3.66-.38,2.68-1.01,5.36-1.87,8.05h5.46c3.64,0,5.46,1.87,5.46,5.6l.07,40.88c0,3.69-1.84,5.53-5.53,5.53h-14.58c-1.82,0-3.2-.47-4.13-1.4-.93-.93-1.4-2.31-1.4-4.13v-40.88ZM1613.75,1201.06v-14.37c0-1.58-.79-2.37-2.37-2.37h-9.12c-1.58,0-2.37.79-2.37,2.37v14.37h13.86ZM1602.26,1225.42h9.12c1.58,0,2.37-.79,2.37-2.37v-16.67h-13.86v16.67c0,1.58.79,2.37,2.37,2.37ZM1635.09,1231.23c-.57-.48-.86-1.22-.86-2.23,0-1.96,1.1-2.95,3.3-2.95,2.97,0,5.05-.06,6.25-.18s2.11-.39,2.73-.83c.62-.43,1.12-1.2,1.51-2.3.67-1.96,1.2-6.75,1.58-14.37.38-7.62.57-14.85.57-21.7,0-1.82-1.05-2.73-3.16-2.73h-16.02c-.81,2.54-2.27,5.46-4.38,8.76-.67,1.1-1.51,1.65-2.51,1.65-.48,0-.98-.14-1.51-.43-.96-.53-1.44-1.27-1.44-2.23,0-.62.19-1.27.57-1.94,2.01-3.78,3.5-6.97,4.45-9.55,1.2-3.16,2.32-6.7,3.38-10.63.24-.81.61-1.45,1.11-1.9.5-.45,1.11-.68,1.83-.68.19,0,.53.05,1.01.14,1.44.34,2.16,1.2,2.16,2.59,0,.48-.07,1.01-.22,1.58-.34,1.39-.74,2.77-1.22,4.13-.48,1.37-.93,2.43-1.36,3.2h17.24c4.21,0,6.32,1.77,6.32,5.32,0,9-.24,17.68-.72,26.04-.48,8.36-1.29,13.95-2.44,16.77-.86,2.01-2.18,3.4-3.95,4.17-1.77.76-4.45,1.15-8.05,1.15-1.44,0-2.54-.03-3.3-.07-1.34-.05-2.3-.31-2.87-.79ZM1628.55,1197.36c.48-.45,1.1-.68,1.87-.68s1.58.43,2.44,1.29c.86.86,1.96,2.28,3.3,4.24,2.78,4.17,4.17,6.92,4.17,8.26,0,.81-.25,1.46-.75,1.94-.5.48-1.21.72-2.12.72-.77,0-1.44-.27-2.01-.83s-1.15-1.38-1.72-2.48c-.91-1.63-2.25-3.81-4.02-6.54l-1.01-1.58c-.24-.33-.44-.74-.61-1.22-.17-.48-.25-.89-.25-1.22,0-.81.24-1.45.72-1.9Z"/>
      <path class="st0" d="M1673.98,1187.63c.6-.62,1.33-.84,2.19-.65.86.19,2.51.79,4.96,1.8,2.44,1.01,4.02,1.7,4.74,2.08,1.1.57,1.65,1.53,1.65,2.87,0,.91-.24,1.65-.72,2.23-.48.57-1.13.86-1.94.86-.48,0-.98-.08-1.51-.25-.53-.17-1.25-.44-2.15-.83-1.34-.62-2.2-1.03-2.59-1.22l-3.52-1.58c-1.34-.62-2.01-1.53-2.01-2.73,0-1.1.3-1.96.9-2.59ZM1674.73,1223.76c2.49-4.74,4.84-10.25,7.04-16.52.24-.76.62-1.35,1.15-1.76.53-.41,1.15-.61,1.87-.61,2.16,0,3.23,1.1,3.23,3.3,0,1.44-1.39,5.32-4.17,11.64-1.15,2.63-2.14,4.81-2.98,6.54-.84,1.72-1.45,2.9-1.83,3.52-.53.77-1.34,1.15-2.44,1.15-2.25,0-3.38-1.15-3.38-3.45,0-.67.5-1.94,1.51-3.81ZM1679.4,1168.66c1.15,0,3.76,1.15,7.83,3.45,1.92,1.05,2.87,2.25,2.87,3.59,0,2.16-1.05,3.23-3.16,3.23-.62,0-1.61-.41-2.95-1.22l-4.45-2.44c-1.15-.62-1.99-1.21-2.51-1.76-.53-.55-.79-1.14-.79-1.76,0-2.06,1.05-3.09,3.16-3.09ZM1695.78,1170.53c.57,0,1.2.35,1.87,1.04.67.7,1.48,1.76,2.44,3.2,1.82,2.73,2.73,4.6,2.73,5.6,0,1.87-1.03,2.8-3.09,2.8-1.05,0-1.87-.38-2.44-1.15l-3.23-5.89c-.38-.67-.69-1.28-.93-1.83-.24-.55-.36-.95-.36-1.19,0-1.72,1.01-2.59,3.02-2.59ZM1693.77,1229.15v-37.28c0-2.3.5-3.96,1.51-4.99,1.01-1.03,2.63-1.5,4.89-1.4h9.63v-15.23c0-2.25,1.03-3.38,3.09-3.38s3.09,1.13,3.09,3.38v15.23h10.34c2.3,0,3.97.52,5.03,1.54,1.05,1.03,1.53,2.67,1.44,4.92v32.4c.19,2.78-.37,4.82-1.69,6.14-1.32,1.32-3.34,1.88-6.07,1.69h-4.45c-2.49,0-3.74-1.03-3.74-3.09s1.24-3.16,3.74-3.16h4.02c1.48,0,2.27-.79,2.37-2.37v-8.05h-27.3v13.65c0,2.15-.98,3.23-2.95,3.23s-2.95-1.08-2.95-3.23ZM1726.96,1197.9v-4.6c0-1.48-.77-2.27-2.3-2.37h-22.7c-1.44,0-2.2.77-2.3,2.3v4.67h27.3ZM1726.96,1210.19v-6.97h-27.3v6.97h27.3ZM1727.75,1172.4c.77-1.48,1.8-2.23,3.09-2.23,2.16,0,3.23.98,3.23,2.95,0,.91-.84,2.83-2.51,5.75-1.72,3.02-3.19,4.53-4.38,4.53-2.06,0-3.09-.91-3.09-2.73,0-.72,1.22-3.47,3.66-8.26Z"/>
      <path class="st0" d="M1754.33,1227.43c5.17-.29,10.73-.98,16.67-2.08l2.66-.5c1.91,0,2.87.89,2.87,2.66,0,.62-.81,1.23-2.44,1.83-1.63.6-4.02,1.14-7.18,1.62-6.47,1.01-10.92,1.51-13.36,1.51-.96,0-1.65-.2-2.08-.61-.43-.41-.65-1.07-.65-1.97,0-1.49,1.17-2.3,3.52-2.44ZM1751.09,1200.06c0-.96.38-1.6,1.15-1.94.72-.29,2.04-.57,3.95-.86,6.03-.86,10.34-2.47,12.93-4.81h-9.7c-3.21,0-4.81-1.17-4.81-3.52l.22-1.37.5-2.3c.38-1.72.98-3.02,1.8-3.88.81-.86,1.94-1.29,3.38-1.29h11.71l.07-3.95h-15.95c-1.49,0-2.23-.74-2.23-2.23s.74-2.16,2.23-2.16h16.02v-1.36c0-2.39.89-3.59,2.66-3.59s2.73.93,2.73,2.8l-.14,2.15h10.85v-2.44c0-1.68.86-2.51,2.59-2.51,1.82,0,2.73.84,2.73,2.51v2.44h13c3.45,0,5.2,1.65,5.24,4.96v2.59c0,3.31-1.75,4.96-5.24,4.96h-13v4.02h15.88c3.4,0,5.1,1.39,5.1,4.17,0,4.93-2.32,7.47-6.97,7.61.86,1.1,1.27,2.59,1.22,4.45v13.72c0,2.11-.48,3.65-1.44,4.63-.96.98-2.47,1.42-4.53,1.33h-38.58c-2.16,0-3.71-.48-4.67-1.44-.96-.96-1.41-2.47-1.36-4.53v-13.72c0-1.34.17-2.42.5-3.23-.38.1-1.22.34-2.51.72-1.29.38-2.23.57-2.8.57-1.68,0-2.51-.84-2.51-2.51ZM1761.29,1188.27h10.06l.65-4.02h-9.84c-.72,0-1.25.25-1.58.75-.34.5-.5,1.28-.5,2.34,0,.62.41.93,1.22.93ZM1803.25,1205.95v-1.22c0-1.29-.69-1.99-2.08-2.08h-35.63c-.48,0-.84.13-1.08.39-.24.26-.36.61-.36,1.04v1.87h39.15ZM1803.25,1213.06v-3.38h-39.15v3.38h39.15ZM1766.18,1220.17h34.99c1.29,0,1.99-.72,2.08-2.16v-1.22h-39.15v1.22c0,1.34.69,2.06,2.08,2.16ZM1788.45,1198.62v-6.18h-13.29c-1.25,2.4-3.83,4.45-7.76,6.18h21.05ZM1788.45,1188.27v-4.02h-11.35l-.5,4.02h11.85ZM1788.45,1180.09v-3.95h-10.85l-.22,3.95h11.06ZM1793.55,1224.84l.93.14c7.14,1.1,13.34,1.87,18.61,2.3,2.25.24,3.38,1.03,3.38,2.37,0,1.82-1.01,2.73-3.02,2.73-3.11,0-7.64-.55-13.58-1.65-6.23-1.15-9.34-2.28-9.34-3.38,0-1.68,1.01-2.51,3.02-2.51ZM1804.76,1180.09c1.2,0,1.8-.38,1.8-1.15v-1.58c0-.81-.6-1.22-1.8-1.22h-10.99v3.95h10.99ZM1803.1,1198.62l-.07-.72c-.1-.77.14-1.35.72-1.76.57-.41,1.36-.63,2.37-.68,1.96-.05,2.95-.76,2.95-2.15,0-.57-.36-.86-1.08-.86h-14.22v6.18h9.34Z"/>
      <path class="st0" d="M1830.83,1192.73c0-1.39.3-2.47.9-3.23.6-.77,1.47-1.2,2.62-1.29v-13.65c0-3.54,1.8-5.32,5.39-5.32h11.21c3.59,0,5.39,1.77,5.39,5.32v13.65c1.1.1,1.98.53,2.62,1.29.65.77.99,1.84,1.04,3.23v5.03c0,1.92-.79,2.87-2.37,2.87s-2.37-.96-2.37-2.87v-2.8c0-1.2-.6-1.8-1.8-1.8h-16.02c-1.2,0-1.82.6-1.87,1.8v4.02c0,1.87-.79,2.8-2.37,2.8s-2.37-.93-2.37-2.8v-6.25ZM1835.93,1202.07c0-3.4,1.75-5.1,5.24-5.1h9.05c3.45,0,5.17,1.7,5.17,5.1v23.92c0,2.06-.48,3.6-1.44,4.63-.96,1.03-2.44,1.55-4.45,1.55h-2.44c-.86,0-1.51-.2-1.94-.61-.43-.41-.65-1.04-.65-1.9,0-1.72.84-2.59,2.51-2.59h1.22c.67,0,1.2-.19,1.58-.57.38-.38.57-.93.57-1.65v-4.81h-9.27v9.48c0,1.91-.86,2.87-2.59,2.87-.82,0-1.45-.24-1.9-.72-.46-.48-.68-1.2-.68-2.15v-27.44ZM1842.75,1188.13v-5.17c0-2.92,1.44-4.38,4.31-4.38h4.74v-2.37c0-1.2-.62-1.82-1.87-1.87h-9.05c-1.2,0-1.84.65-1.94,1.94v11.85h3.81ZM1850.37,1206.38v-2.8c0-1.24-.62-1.87-1.87-1.87h-5.53c-1.25,0-1.87.62-1.87,1.87v2.8h9.27ZM1850.37,1215.43v-4.45h-9.27v4.45h9.27ZM1851.81,1188.13v-5.03h-2.73c-1.15,0-1.72.55-1.72,1.65v3.38h4.45ZM1859.35,1226.42h8.48l-1.29-5.53c-1.68,0-2.97-.37-3.88-1.11-.91-.74-1.36-1.83-1.36-3.27v-4.6c0-1.48.42-2.62,1.26-3.41.84-.79,2.07-1.19,3.7-1.19h21.05c3.35,0,5.03,1.49,5.03,4.45v4.53c0,3.07-1.75,4.6-5.24,4.6l-1.22,5.53h7.69c1.58,0,2.37.79,2.37,2.37s-.79,2.37-2.37,2.37h-34.19c-1.58,0-2.37-.79-2.37-2.37s.79-2.37,2.37-2.37ZM1862.08,1199.41h31.54c1.53,0,2.3.79,2.3,2.37s-.77,2.3-2.3,2.3h-31.54c-.81,0-1.44-.2-1.87-.61-.43-.41-.65-.97-.65-1.69,0-1.58.84-2.37,2.51-2.37ZM1861.75,1194.74c-.93-.91-1.33-2.37-1.19-4.38v-11.64c0-2.11.45-3.64,1.36-4.6.91-.96,2.37-1.36,4.38-1.22h3.74v-3.59c0-.81.18-1.4.54-1.76s.9-.54,1.62-.54c1.48,0,2.23.77,2.23,2.3v3.59h4.81v-3.59c0-1.53.74-2.3,2.23-2.3s2.16.77,2.16,2.3v3.59h4.17c2.11,0,3.63.46,4.56,1.36.93.91,1.35,2.4,1.26,4.45v11.64c0,2.06-.47,3.57-1.4,4.53-.93.96-2.41,1.36-4.42,1.22h-21.48c-2.11,0-3.63-.45-4.56-1.36ZM1870.12,1182.38v-4.88h-2.95c-1.01,0-1.56.55-1.65,1.65v3.23h4.6ZM1867.18,1191.58h2.95v-5.1h-4.6v3.45c0,1.05.55,1.61,1.65,1.65ZM1868.18,1216.65h17.24c.96,0,1.48-.55,1.58-1.65v-1.8c0-1.05-.53-1.6-1.58-1.65h-17.24c-1.05,0-1.58.55-1.58,1.65v1.8c0,1.01.53,1.56,1.58,1.65ZM1872.64,1225.92l.07.5h8.26l1.01-5.32v-.22h-10.49l1.15,5.03ZM1879.32,1182.38v-4.88h-4.96v4.88h4.96ZM1879.32,1191.58v-5.1h-4.96v5.1h4.96ZM1888.59,1182.38v-3.23c0-1.1-.55-1.65-1.65-1.65h-3.38v4.88h5.03ZM1886.93,1191.58c1.1,0,1.65-.55,1.65-1.65v-3.45h-5.03v5.1h3.38Z"/>
      <path class="st0" d="M1910.35,1218.81l.65-5.53c.19-1.96.96-2.95,2.3-2.95,1.44,0,2.16.69,2.16,2.08l-.79,9.48c-.19,2.25-1.05,3.38-2.59,3.38-1.68,0-2.51-.74-2.51-2.23l.79-4.24ZM1923.64,1229.15c0-1.92,1.03-2.87,3.09-2.87,2.68,0,4.38-1.12,5.1-3.38.29-.91.57-2.39.86-4.45-.34.29-.72.43-1.15.43-.91,0-1.7-1.05-2.37-3.16l-1.51-5.1c0-.48.16-.86.47-1.15.31-.29.73-.43,1.26-.43.96,0,1.7.81,2.23,2.44l.72,1.87.65,1.87.43-6.68c.05-1.15-.62-1.72-2.01-1.72h-13.36c-3.74,0-5.6-1.84-5.6-5.53v-26.08c0-3.78,1.87-5.68,5.6-5.68h18.1c1.91,0,2.87.84,2.87,2.51,0,.86-.23,1.5-.68,1.9-.46.41-1.19.61-2.19.61h-7.11v5.89h5.6c1.77,0,2.66.81,2.66,2.44,0,.77-.23,1.35-.68,1.76-.46.41-1.11.61-1.97.61h-5.6v5.82h5.6c.72,0,1.29.14,1.72.43-.19-.38-.29-.89-.29-1.51,0-.86.69-1.84,2.08-2.95,6.51-5.12,10.94-11.06,13.29-17.82.62-1.68,1.68-2.51,3.16-2.51,1.77,0,2.66.65,2.66,1.94l-.29,1.08c4.93,7.47,10.34,12.76,16.23,15.88,1.48.77,2.23,1.8,2.23,3.09,0,2.06-.98,3.09-2.95,3.09-1.53,0-4.02-1.56-7.47-4.67.14.29.22.62.22,1.01,0,1.72-1.03,2.59-3.09,2.59h-13.51c-2.06,0-3.09-.86-3.09-2.59,0-.33.02-.57.07-.72-3.16,3.59-5.46,5.39-6.9,5.39-.67,0-1.22-.14-1.65-.43.14.34.22.72.22,1.15,0,.77-.23,1.35-.68,1.76-.46.41-1.11.61-1.97.61h-5.6v6.11h4.31c3.3,0,4.96,1.61,4.96,4.81l-.14,3.02c-.19,4.31-.54,7.99-1.04,11.03-.5,3.04-1.04,5.28-1.62,6.72-1.25,2.97-4.17,4.45-8.76,4.45-2.06,0-3.09-.96-3.09-2.87ZM1918.61,1210.55c.57,0,1.06.25,1.47.75.41.5.66,1.21.75,2.12l1.15,7.04.07.65c0,1.34-.77,2.01-2.3,2.01-1.34,0-2.13-1.58-2.37-4.74l-.65-6.03c-.14-1.2.48-1.8,1.87-1.8ZM1924.21,1180.44v-5.89h-4.74c-1.39,0-2.08.67-2.08,2.01v3.88h6.82ZM1924.21,1191.08v-5.82h-6.82v5.82h6.82ZM1919.47,1202h4.74v-6.11h-6.82v4.17c0,1.2.69,1.84,2.08,1.94ZM1922.56,1210.29c.38-.31.91-.47,1.58-.47,1.01,0,1.87,1.25,2.59,3.73l1.44,5.53c0,1.34-.67,2.01-2.01,2.01-.86,0-1.51-.38-1.94-1.15l-2.08-8.48c-.1-.48.05-.87.43-1.19ZM1937.68,1226.78c.36-.48.95-1.17,1.76-2.08,2.78-3.02,4.62-6.68,5.53-10.99-1.72-.1-3.01-.55-3.84-1.37-.84-.81-1.26-2.06-1.26-3.73v-8.76c0-3.4,1.7-5.1,5.1-5.1h4.38c1.68,0,2.95.43,3.81,1.29s1.29,2.13,1.29,3.81v8.76c0,3.4-1.65,5.08-4.96,5.03l-.72,3.38c4.21,2.59,6.32,4.55,6.32,5.89,0,1.63-.81,2.44-2.44,2.44-.53,0-1.17-.33-1.94-1.01l-3.23-3.23-.14-.07c-2.87,6.27-5.44,9.41-7.69,9.41-1.68,0-2.51-.81-2.51-2.44,0-.34.18-.74.54-1.22ZM1946.2,1208.89h1.94c1.1,0,1.65-.57,1.65-1.72v-5.89c0-1.15-.55-1.75-1.65-1.8h-1.94c-1.1,0-1.65.6-1.65,1.8v5.89c0,1.05.55,1.63,1.65,1.72ZM1948.64,1185.55h13.51c.33,0,.74.05,1.22.14-2.97-2.78-5.87-6.54-8.69-11.28-2.35,4.31-4.91,8.12-7.69,11.42.38-.19.93-.29,1.65-.29ZM1953.88,1226.28c4.17-3.26,6.66-7.47,7.47-12.64-3.11-.05-4.67-1.72-4.67-5.03v-8.76c0-3.4,1.65-5.1,4.96-5.1h5.03c3.4,0,5.1,1.7,5.1,5.1v8.76c0,3.4-1.7,5.1-5.1,5.1h-.79c-.19,1.44-.55,3.11-1.08,5.03,6.47,4.45,9.7,7.69,9.7,9.7,0,1.82-.98,2.73-2.95,2.73-1.01,0-3.19-2.04-6.54-6.11l-2.08-2.16c-3.35,5.75-6.13,8.62-8.33,8.62-1.68,0-2.51-.86-2.51-2.59,0-.86.6-1.75,1.8-2.66ZM1963.08,1208.89h2.08c1.15,0,1.72-.57,1.72-1.72v-5.89c0-1.1-.57-1.7-1.72-1.8h-2.08c-1.1,0-1.7.6-1.8,1.8v5.89c0,1.05.6,1.63,1.8,1.72Z"/>
    </g>
  </g>
</svg>